<svg width="81" height="81" viewBox="0 0 81 81" fill="none" xmlns="http://www.w3.org/2000/svg">
<rect x="0.33194" y="0.293945" width="80.55" height="80.55" rx="40.275" fill="black"/>
<path d="M28.2559 50.6863C30.8302 50.6863 32.9171 48.5995 32.9171 46.0252C32.9171 43.4509 30.8302 41.364 28.2559 41.364C25.6816 41.364 23.5948 43.4509 23.5948 46.0252C23.5948 48.5995 25.6816 50.6863 28.2559 50.6863Z" fill="white"/>
<path d="M37.5138 62.7258C37.2024 57.882 33.1856 54.0479 28.2667 54.0479C23.3478 54.0479 19.3203 57.882 19.0195 62.7258H37.5138Z" fill="white"/>
<path d="M52.6679 50.6863C55.2422 50.6863 57.3291 48.5995 57.3291 46.0252C57.3291 43.4509 55.2422 41.364 52.6679 41.364C50.0936 41.364 48.0068 43.4509 48.0068 46.0252C48.0068 48.5995 50.0936 50.6863 52.6679 50.6863Z" fill="white"/>
<path d="M61.9151 62.7258C61.6036 57.882 57.5869 54.0479 52.6679 54.0479C47.749 54.0479 43.7215 57.882 43.4208 62.7258H61.9151Z" fill="white"/>
<path d="M46.4065 22.1285V16.5437H23.3048V30.6024H26.6127V35.6502L30.9302 30.6024H34.8503" fill="white"/>
<path d="M50.3374 35.6873H35.3503V22.6287H57.4628V35.6873H54.6548H54.1548V36.1873V39.8813L50.7173 35.8623L50.5676 35.6873H50.3374Z" fill="white" stroke="black"/>
<path d="M22.7892 46.025C22.7892 49.043 25.238 51.4917 28.2559 51.4917C31.2738 51.4917 33.7226 49.043 33.7226 46.025C33.7226 43.0071 31.2738 40.5583 28.2559 40.5583C25.238 40.5583 22.7892 43.0178 22.7892 46.025ZM32.1116 46.025C32.1116 48.1515 30.3824 49.8807 28.2559 49.8807C26.1294 49.8807 24.4002 48.1515 24.4002 46.025C24.4002 43.8985 26.1294 42.1693 28.2559 42.1693C30.3824 42.1693 32.1116 43.8985 32.1116 46.025Z" fill="white"/>
<path d="M28.2559 53.2317C22.9611 53.2317 18.5362 57.3773 18.2033 62.6722C18.1925 62.8977 18.2677 63.1125 18.4181 63.2736C18.5684 63.4347 18.7832 63.5313 19.0088 63.5313H37.5138C37.7393 63.5313 37.9541 63.4347 38.1045 63.2736C38.2549 63.1125 38.33 62.8977 38.3193 62.6722C37.9756 57.3773 33.5507 53.2317 28.2559 53.2317ZM19.9109 61.9096C20.5876 57.8821 24.0995 54.8427 28.2559 54.8427C32.4123 54.8427 35.935 57.8821 36.6009 61.9096H19.9109Z" fill="white"/>
<path d="M47.2013 46.025C47.2013 49.043 49.65 51.4917 52.6679 51.4917C55.6859 51.4917 58.1346 49.043 58.1346 46.025C58.1346 43.0071 55.6859 40.5583 52.6679 40.5583C49.65 40.5583 47.2013 43.0178 47.2013 46.025ZM56.5236 46.025C56.5236 48.1515 54.7944 49.8807 52.6679 49.8807C50.5414 49.8807 48.8123 48.1515 48.8123 46.025C48.8123 43.8985 50.5414 42.1693 52.6679 42.1693C54.7944 42.1693 56.5236 43.8985 56.5236 46.025Z" fill="white"/>
<path d="M52.6679 53.2317C47.3731 53.2317 42.9482 57.3773 42.6153 62.6722C42.6046 62.8977 42.6797 63.1125 42.8301 63.2736C42.9805 63.4347 43.1953 63.5313 43.4208 63.5313H61.9258C62.1514 63.5313 62.3662 63.4347 62.5165 63.2736C62.6669 63.1125 62.7421 62.8977 62.7313 62.6722C62.3769 57.3773 57.9628 53.2317 52.6679 53.2317ZM44.3122 61.9096C44.9888 57.8821 48.5008 54.8427 52.6572 54.8427C56.8243 54.8427 60.3363 57.8821 61.0022 61.9096H44.3122Z" fill="white"/>
<g opacity="0.1">
<mask id="path-12-inside-1_349_5" fill="white">
<path d="M23.3048 31.4079H25.8072V35.6502C25.8072 35.9832 26.022 36.2839 26.3335 36.402C26.4194 36.4343 26.5161 36.4557 26.6127 36.4557C26.8383 36.4557 27.0638 36.3591 27.2249 36.1765L31.3061 31.4079H34.0555V36.198C34.0555 36.4128 34.1415 36.6168 34.2918 36.7672C34.4422 36.9176 34.6462 37.0035 34.861 37.0035H49.9722L54.0427 41.772C54.2038 41.9546 54.4186 42.0513 54.6549 42.0513C54.7515 42.0513 54.8482 42.0405 54.9341 41.9976C55.2563 41.8902 55.4604 41.5787 55.4604 41.2458V37.0035H57.9628C58.1776 37.0035 58.3816 36.9176 58.532 36.7672C58.6824 36.6168 58.7683 36.4128 58.7683 36.198V22.1286C58.7683 21.9138 58.6824 21.7097 58.532 21.5594C58.3816 21.409 58.1776 21.3231 57.9628 21.3231H47.2228V16.533C47.2228 16.0927 46.8576 15.7275 46.4173 15.7275H23.3048C22.8645 15.7275 22.4993 16.0927 22.4993 16.533V30.5917C22.4993 31.0428 22.8645 31.4079 23.3048 31.4079ZM24.1103 17.3385H45.601V21.3231H34.861C34.6462 21.3231 34.4422 21.409 34.2918 21.5594C34.1415 21.699 34.0555 21.9138 34.0555 22.1286V23.804C34.0555 24.2551 34.41 24.6095 34.861 24.6095C35.3014 24.6095 35.6665 24.2551 35.6665 23.804V22.9341H57.1573V35.3817H54.6549C54.4508 35.3817 54.236 35.4677 54.0856 35.618C53.9353 35.7684 53.8494 35.9724 53.8494 36.1872V39.0548L50.9496 35.661C50.7992 35.4784 50.5737 35.3817 50.3374 35.3817H35.6665V28.1C35.6665 27.6597 35.3014 27.2945 34.861 27.2945C34.41 27.2945 34.0555 27.6597 34.0555 28.1V29.7862H30.9302C30.6939 29.7862 30.4684 29.8936 30.318 30.0654L27.4182 33.4593V30.5917C27.4182 30.1514 27.0531 29.7862 26.6127 29.7862H24.1103V17.3385Z"/>
</mask>
<path d="M23.3048 31.4079H25.8072V35.6502C25.8072 35.9832 26.022 36.2839 26.3335 36.402C26.4194 36.4343 26.5161 36.4557 26.6127 36.4557C26.8383 36.4557 27.0638 36.3591 27.2249 36.1765L31.3061 31.4079H34.0555V36.198C34.0555 36.4128 34.1415 36.6168 34.2918 36.7672C34.4422 36.9176 34.6462 37.0035 34.861 37.0035H49.9722L54.0427 41.772C54.2038 41.9546 54.4186 42.0513 54.6549 42.0513C54.7515 42.0513 54.8482 42.0405 54.9341 41.9976C55.2563 41.8902 55.4604 41.5787 55.4604 41.2458V37.0035H57.9628C58.1776 37.0035 58.3816 36.9176 58.532 36.7672C58.6824 36.6168 58.7683 36.4128 58.7683 36.198V22.1286C58.7683 21.9138 58.6824 21.7097 58.532 21.5594C58.3816 21.409 58.1776 21.3231 57.9628 21.3231H47.2228V16.533C47.2228 16.0927 46.8576 15.7275 46.4173 15.7275H23.3048C22.8645 15.7275 22.4993 16.0927 22.4993 16.533V30.5917C22.4993 31.0428 22.8645 31.4079 23.3048 31.4079ZM24.1103 17.3385H45.601V21.3231H34.861C34.6462 21.3231 34.4422 21.409 34.2918 21.5594C34.1415 21.699 34.0555 21.9138 34.0555 22.1286V23.804C34.0555 24.2551 34.41 24.6095 34.861 24.6095C35.3014 24.6095 35.6665 24.2551 35.6665 23.804V22.9341H57.1573V35.3817H54.6549C54.4508 35.3817 54.236 35.4677 54.0856 35.618C53.9353 35.7684 53.8494 35.9724 53.8494 36.1872V39.0548L50.9496 35.661C50.7992 35.4784 50.5737 35.3817 50.3374 35.3817H35.6665V28.1C35.6665 27.6597 35.3014 27.2945 34.861 27.2945C34.41 27.2945 34.0555 27.6597 34.0555 28.1V29.7862H30.9302C30.6939 29.7862 30.4684 29.8936 30.318 30.0654L27.4182 33.4593V30.5917C27.4182 30.1514 27.0531 29.7862 26.6127 29.7862H24.1103V17.3385Z" fill="white"/>
<path d="M25.8072 31.4079H27.8072V29.4079H25.8072V31.4079ZM26.3335 36.402L25.6242 38.272L25.6312 38.2747L26.3335 36.402ZM27.2249 36.1765L28.7246 37.4997L28.7346 37.4884L28.7444 37.477L27.2249 36.1765ZM31.3061 31.4079V29.4079H30.3853L29.7866 30.1075L31.3061 31.4079ZM34.0555 31.4079H36.0555V29.4079H34.0555V31.4079ZM49.9722 37.0035L51.4934 35.705L50.8946 35.0035H49.9722V37.0035ZM54.0427 41.772L52.5215 43.0705L52.5322 43.083L52.543 43.0953L54.0427 41.772ZM54.9341 41.9976L54.3016 40.1002L54.1668 40.1452L54.0397 40.2087L54.9341 41.9976ZM55.4604 37.0035V35.0035H53.4604V37.0035H55.4604ZM47.2228 21.3231H45.2228V23.3231H47.2228V21.3231ZM24.1103 17.3385V15.3385H22.1103V17.3385H24.1103ZM45.601 17.3385H47.601V15.3385H45.601V17.3385ZM45.601 21.3231V23.3231H47.601V21.3231H45.601ZM34.2918 21.5594L35.6527 23.0249L35.6799 22.9998L35.706 22.9736L34.2918 21.5594ZM35.6665 22.9341V20.9341H33.6665V22.9341H35.6665ZM57.1573 22.9341H59.1573V20.9341H57.1573V22.9341ZM57.1573 35.3817V37.3817H59.1573V35.3817H57.1573ZM53.8494 39.0548L52.3288 40.354L55.8494 44.4744V39.0548H53.8494ZM50.9496 35.661L49.4057 36.9324L49.4172 36.9464L49.429 36.9602L50.9496 35.661ZM35.6665 35.3817H33.6665V37.3817H35.6665V35.3817ZM34.0555 29.7862V31.7862H36.0555V29.7862H34.0555ZM30.318 30.0654L28.8129 28.7484L28.8051 28.7573L28.7975 28.7662L30.318 30.0654ZM27.4182 33.4593H25.4182V38.8788L28.9388 34.7585L27.4182 33.4593ZM24.1103 29.7862H22.1103V31.7862H24.1103V29.7862ZM23.3048 33.4079H25.8072V29.4079H23.3048V33.4079ZM23.8072 31.4079V35.6502H27.8072V31.4079H23.8072ZM23.8072 35.6502C23.8072 36.8441 24.5643 37.87 25.6242 38.272L27.0428 34.532C27.4798 34.6978 27.8072 35.1222 27.8072 35.6502H23.8072ZM25.6312 38.2747C25.8937 38.3731 26.2299 38.4557 26.6127 38.4557V34.4557C26.8023 34.4557 26.945 34.4954 27.0357 34.5294L25.6312 38.2747ZM26.6127 38.4557C27.4059 38.4557 28.1797 38.1172 28.7246 37.4997L25.7252 34.8533C25.9479 34.6009 26.2706 34.4557 26.6127 34.4557V38.4557ZM28.7444 37.477L32.8256 32.7084L29.7866 30.1075L25.7054 34.876L28.7444 37.477ZM31.3061 33.4079H34.0555V29.4079H31.3061V33.4079ZM32.0555 31.4079V36.198H36.0555V31.4079H32.0555ZM32.0555 36.198C32.0555 36.9492 32.3565 37.6603 32.8776 38.1814L35.706 35.353C35.9265 35.5734 36.0555 35.8763 36.0555 36.198H32.0555ZM32.8776 38.1814C33.3988 38.7026 34.1098 39.0035 34.861 39.0035V35.0035C35.1827 35.0035 35.4856 35.1326 35.706 35.353L32.8776 38.1814ZM34.861 39.0035H49.9722V35.0035H34.861V39.0035ZM48.451 38.302L52.5215 43.0705L55.5638 40.4736L51.4934 35.705L48.451 38.302ZM52.543 43.0953C53.0785 43.7022 53.8368 44.0513 54.6549 44.0513V40.0513C55.0003 40.0513 55.3291 40.2071 55.5424 40.4488L52.543 43.0953ZM54.6549 44.0513C54.8698 44.0513 55.3329 44.0342 55.8285 43.7864L54.0397 40.2087C54.3634 40.0468 54.6333 40.0513 54.6549 40.0513V44.0513ZM55.5666 43.8949C56.775 43.4921 57.4604 42.3639 57.4604 41.2458H53.4604C53.4604 40.7935 53.7376 40.2882 54.3016 40.1002L55.5666 43.8949ZM57.4604 41.2458V37.0035H53.4604V41.2458H57.4604ZM55.4604 39.0035H57.9628V35.0035H55.4604V39.0035ZM57.9628 39.0035C58.714 39.0035 59.4251 38.7026 59.9462 38.1814L57.1178 35.353C57.3382 35.1326 57.6411 35.0035 57.9628 35.0035V39.0035ZM59.9462 38.1814C60.4674 37.6603 60.7683 36.9492 60.7683 36.198H56.7683C56.7683 35.8763 56.8974 35.5734 57.1178 35.353L59.9462 38.1814ZM60.7683 36.198V22.1286H56.7683V36.198H60.7683ZM60.7683 22.1286C60.7683 21.3773 60.4674 20.6663 59.9462 20.1451L57.1178 22.9736C56.8974 22.7531 56.7683 22.4502 56.7683 22.1286H60.7683ZM59.9462 20.1451C59.4251 19.624 58.714 19.3231 57.9628 19.3231V23.3231C57.6411 23.3231 57.3382 23.194 57.1178 22.9736L59.9462 20.1451ZM57.9628 19.3231H47.2228V23.3231H57.9628V19.3231ZM49.2228 21.3231V16.533H45.2228V21.3231H49.2228ZM49.2228 16.533C49.2228 14.9881 47.9622 13.7275 46.4173 13.7275V17.7275C45.753 17.7275 45.2228 17.1973 45.2228 16.533H49.2228ZM46.4173 13.7275H23.3048V17.7275H46.4173V13.7275ZM23.3048 13.7275C21.7599 13.7275 20.4993 14.9881 20.4993 16.533H24.4993C24.4993 17.1973 23.969 17.7275 23.3048 17.7275V13.7275ZM20.4993 16.533V30.5917H24.4993V16.533H20.4993ZM20.4993 30.5917C20.4993 32.1301 21.7427 33.4079 23.3048 33.4079V29.4079C23.9862 29.4079 24.4993 29.9555 24.4993 30.5917H20.4993ZM24.1103 19.3385H45.601V15.3385H24.1103V19.3385ZM43.601 17.3385V21.3231H47.601V17.3385H43.601ZM45.601 19.3231H34.861V23.3231H45.601V19.3231ZM34.861 19.3231C34.1098 19.3231 33.3988 19.624 32.8776 20.1451L35.706 22.9736C35.4856 23.194 35.1827 23.3231 34.861 23.3231V19.3231ZM32.9309 20.0938C32.3288 20.6529 32.0555 21.4211 32.0555 22.1286H36.0555C36.0555 22.4065 35.9542 22.745 35.6527 23.0249L32.9309 20.0938ZM32.0555 22.1286V23.804H36.0555V22.1286H32.0555ZM32.0555 23.804C32.0555 25.3597 33.3054 26.6095 34.861 26.6095V22.6095C35.5145 22.6095 36.0555 23.1505 36.0555 23.804H32.0555ZM34.861 26.6095C36.3885 26.6095 37.6665 25.377 37.6665 23.804H33.6665C33.6665 23.1332 34.2142 22.6095 34.861 22.6095V26.6095ZM37.6665 23.804V22.9341H33.6665V23.804H37.6665ZM35.6665 24.9341H57.1573V20.9341H35.6665V24.9341ZM55.1573 22.9341V35.3817H59.1573V22.9341H55.1573ZM57.1573 33.3817H54.6549V37.3817H57.1573V33.3817ZM54.6549 33.3817C53.9284 33.3817 53.2025 33.6727 52.6714 34.2038L55.4999 37.0322C55.3754 37.1567 55.24 37.2401 55.1103 37.2934C54.9814 37.3464 54.8286 37.3817 54.6549 37.3817V33.3817ZM52.6714 34.2038C52.1503 34.725 51.8494 35.436 51.8494 36.1872H55.8494C55.8494 36.5089 55.7203 36.8118 55.4999 37.0322L52.6714 34.2038ZM51.8494 36.1872V39.0548H55.8494V36.1872H51.8494ZM55.3699 37.7556L52.4701 34.3618L49.429 36.9602L52.3288 40.354L55.3699 37.7556ZM52.4934 34.3896C51.928 33.703 51.1137 33.3817 50.3374 33.3817V37.3817C50.0336 37.3817 49.6704 37.2538 49.4057 36.9324L52.4934 34.3896ZM50.3374 33.3817H35.6665V37.3817H50.3374V33.3817ZM37.6665 35.3817V28.1H33.6665V35.3817H37.6665ZM37.6665 28.1C37.6665 26.5551 36.4059 25.2945 34.861 25.2945V29.2945C34.1968 29.2945 33.6665 28.7642 33.6665 28.1H37.6665ZM34.861 25.2945C33.288 25.2945 32.0555 26.5725 32.0555 28.1H36.0555C36.0555 28.7468 35.5319 29.2945 34.861 29.2945V25.2945ZM32.0555 28.1V29.7862H36.0555V28.1H32.0555ZM34.0555 27.7862H30.9302V31.7862H34.0555V27.7862ZM30.9302 27.7862C30.0985 27.7862 29.3305 28.1568 28.8129 28.7484L31.8232 31.3824C31.6062 31.6304 31.2893 31.7862 30.9302 31.7862V27.7862ZM28.7975 28.7662L25.8977 32.1601L28.9388 34.7585L31.8386 31.3646L28.7975 28.7662ZM29.4182 33.4593V30.5917H25.4182V33.4593H29.4182ZM29.4182 30.5917C29.4182 29.0468 28.1576 27.7862 26.6127 27.7862V31.7862C25.9485 31.7862 25.4182 31.2559 25.4182 30.5917H29.4182ZM26.6127 27.7862H24.1103V31.7862H26.6127V27.7862ZM26.1103 29.7862V17.3385H22.1103V29.7862H26.1103Z" fill="black" mask="url(#path-12-inside-1_349_5)"/>
</g>
<path d="M38.8563 26.8971H53.9568C54.3971 26.8971 54.7623 26.532 54.7623 26.0916C54.7623 25.6513 54.3971 25.2861 53.9568 25.2861H38.8563C38.416 25.2861 38.0508 25.6513 38.0508 26.0916C38.0508 26.532 38.4052 26.8971 38.8563 26.8971Z" fill="white"/>
<path d="M38.8563 30.2157H53.9568C54.3971 30.2157 54.7623 29.8506 54.7623 29.4102C54.7623 28.9699 54.3971 28.6047 53.9568 28.6047H38.8563C38.416 28.6047 38.0508 28.9699 38.0508 29.4102C38.0508 29.8506 38.4052 30.2157 38.8563 30.2157Z" fill="white"/>
<path d="M38.8563 33.5451H48.2001C48.6405 33.5451 49.0056 33.1799 49.0056 32.7396C49.0056 32.2992 48.6405 31.9341 48.2001 31.9341H38.8563C38.416 31.9341 38.0508 32.2992 38.0508 32.7396C38.0508 33.1799 38.4052 33.5451 38.8563 33.5451Z" fill="white"/>
</svg>
