<svg width="95" height="95" viewBox="0 0 95 95" fill="none" xmlns="http://www.w3.org/2000/svg">
<rect x="7.98187" y="7.12939" width="79.0909" height="79.3636" rx="39.5455" fill="black"/>
<path d="M74.2539 38.7644C73.9972 38.3965 73.5756 38.1758 73.1357 38.1758H64.6118V34.5337C64.6118 33.7796 63.9885 33.1542 63.237 33.1542H32.3493C31.5977 33.1542 30.9745 33.7796 30.9745 34.5337V56.8275C30.9745 57.5816 31.5977 58.207 32.3493 58.207H36.2354C36.9504 60.7087 39.2601 62.5665 41.973 62.5665C44.686 62.5665 46.9957 60.7271 47.7106 58.207H62.9437C63.6586 60.7087 65.9683 62.5665 68.6813 62.5665C71.3942 62.5665 73.7039 60.7271 74.4189 58.207H77.2602C78.0117 58.207 78.635 57.5816 78.635 56.8275V45.4783C78.635 45.184 78.5433 44.9081 78.3783 44.6873L74.2539 38.7644ZM75.9037 45.8829H69.7445V40.9533H72.4391L75.9037 45.8829ZM33.7241 35.9317H61.8621V55.4663H47.8389C47.3074 52.6888 44.8877 50.5919 41.973 50.5919C39.0584 50.5919 36.6204 52.6888 36.1071 55.4663H33.7241V35.9317ZM41.973 59.8073C40.1949 59.8073 38.7468 58.3542 38.7468 56.57C38.7468 54.7857 40.1949 53.3326 41.973 53.3326C43.7511 53.3326 45.1993 54.7857 45.1993 56.57C45.1993 58.3542 43.7511 59.8073 41.973 59.8073ZM68.6996 59.8073C66.9215 59.8073 65.4733 58.3542 65.4733 56.57C65.4733 54.7857 66.9215 53.3326 68.6996 53.3326C70.4777 53.3326 71.9258 54.7857 71.9258 56.57C71.9258 58.3542 70.4777 59.8073 68.6996 59.8073ZM74.5655 55.4663C74.0339 52.6888 71.6142 50.5919 68.6996 50.5919C67.1231 50.5919 65.675 51.2173 64.6118 52.2289V40.9533H66.9765V47.2625C66.9765 48.0167 67.5997 48.6421 68.3513 48.6421H75.922V55.4663H74.5655Z" fill="white"/>
<path d="M17.7578 35.932H27.5649C28.3165 35.932 28.9397 35.3066 28.9397 34.5524C28.9397 33.7983 28.3165 33.1729 27.5649 33.1729H17.7578C17.0062 33.1729 16.383 33.7983 16.383 34.5524C16.383 35.3066 17.0062 35.932 17.7578 35.932Z" fill="white"/>
<path d="M27.5649 38.1942H20.0125C19.2609 38.1942 18.6377 38.8196 18.6377 39.5738C18.6377 40.3279 19.2609 40.9533 20.0125 40.9533H27.5649C28.3164 40.9533 28.9397 40.3279 28.9397 39.5738C28.9397 38.8196 28.3348 38.1942 27.5649 38.1942Z" fill="white"/>
<path d="M27.5649 43.2158H22.7988C22.0473 43.2158 21.424 43.8412 21.424 44.5954C21.424 45.3495 22.0473 45.9749 22.7988 45.9749H27.5649C28.3165 45.9749 28.9397 45.3495 28.9397 44.5954C28.9397 43.8412 28.3348 43.2158 27.5649 43.2158Z" fill="white"/>
<path d="M27.5649 48.2374H25.9151C25.1635 48.2374 24.5403 48.8628 24.5403 49.617C24.5403 50.3712 25.1635 50.9966 25.9151 50.9966H27.5649C28.3165 50.9966 28.9397 50.3712 28.9397 49.617C28.9397 48.8628 28.3348 48.2374 27.5649 48.2374Z" fill="white"/>
</svg>
