<svg width="20" height="20" viewBox="0 0 20 20" fill="none" xmlns="http://www.w3.org/2000/svg">
<g clip-path="url(#clip0_209_2)">
<path d="M19.2687 6.03602L18.3847 6.92036L13.0807 1.61708L13.9646 0.732654C14.941 -0.243893 16.5245 -0.243893 17.501 0.732654L19.2687 2.5008C20.2438 3.47681 20.2438 5.05956 19.2687 6.03602ZM6.89309 16.6419C6.649 16.886 6.649 17.2814 6.89309 17.5255C7.13731 17.7709 7.53285 17.7709 7.77694 17.5255L17.501 7.80417L16.616 6.91974L6.89309 16.6419ZM2.47311 12.223C2.22889 12.4673 2.22889 12.8625 2.47311 13.1067C2.71721 13.3508 3.11274 13.3508 3.35696 13.1067L13.0807 3.38465L12.1971 2.5008L2.47311 12.223ZM13.9635 4.26783L4.2406 13.9905C3.75237 14.4778 3.7536 15.2699 4.2406 15.7582C4.72904 16.2464 5.51994 16.2487 6.00945 15.7568L15.7323 6.03602L13.9635 4.26783ZM6.00694 18.4071C5.70798 18.1077 5.56388 17.7284 5.51025 17.3375C5.38318 17.3572 5.25519 17.3754 5.12445 17.3754C4.45663 17.3754 3.82941 17.1144 3.35696 16.6419C2.88451 16.1683 2.62451 15.5419 2.62451 14.8742C2.62451 14.7524 2.64277 14.6338 2.65991 14.5155C2.25585 14.4604 1.88237 14.2835 1.58939 13.9905C1.56127 13.9626 1.55159 13.9247 1.52599 13.8941L0 19.9999L6.08995 18.4754C6.06312 18.451 6.03274 18.4327 6.00694 18.4071Z" fill="black"/>
</g>
<defs>
<clipPath id="clip0_209_2">
<rect width="20" height="20" fill="white"/>
</clipPath>
</defs>
</svg>
