<svg width="266" height="36" viewBox="0 0 266 36" fill="none" xmlns="http://www.w3.org/2000/svg">
<path d="M49.3632 8.96005H50.7832V23.8H49.3632V8.96005ZM60.8143 13.2C62.1876 13.2 63.241 13.5467 63.9743 14.24C64.7076 14.92 65.0743 15.9334 65.0743 17.28V23.8H63.7143V22.16C63.3943 22.7067 62.921 23.1334 62.2943 23.44C61.681 23.7467 60.9476 23.9 60.0943 23.9C58.921 23.9 57.9876 23.62 57.2943 23.06C56.601 22.5 56.2543 21.76 56.2543 20.84C56.2543 19.9467 56.5743 19.2267 57.2143 18.68C57.8676 18.1334 58.901 17.86 60.3143 17.86H63.6543V17.22C63.6543 16.3134 63.401 15.6267 62.8943 15.16C62.3876 14.68 61.6476 14.44 60.6743 14.44C60.0076 14.44 59.3676 14.5534 58.7543 14.78C58.141 14.9934 57.6143 15.2934 57.1743 15.68L56.5343 14.62C57.0676 14.1667 57.7076 13.82 58.4543 13.58C59.201 13.3267 59.9876 13.2 60.8143 13.2ZM60.3143 22.78C61.1143 22.78 61.801 22.6 62.3743 22.24C62.9476 21.8667 63.3743 21.3334 63.6543 20.64V18.92H60.3543C58.5543 18.92 57.6543 19.5467 57.6543 20.8C57.6543 21.4134 57.8876 21.9 58.3543 22.26C58.821 22.6067 59.4743 22.78 60.3143 22.78ZM76.7512 13.2C77.7378 13.2 78.6312 13.4267 79.4312 13.88C80.2312 14.32 80.8578 14.9467 81.3112 15.76C81.7645 16.5734 81.9912 17.5 81.9912 18.54C81.9912 19.5934 81.7645 20.5267 81.3112 21.34C80.8578 22.1534 80.2312 22.7867 79.4312 23.24C78.6445 23.68 77.7512 23.9 76.7512 23.9C75.8978 23.9 75.1245 23.7267 74.4312 23.38C73.7512 23.02 73.1912 22.5 72.7512 21.82V27.68H71.3312V13.28H72.6912V15.36C73.1178 14.6667 73.6778 14.1334 74.3712 13.76C75.0778 13.3867 75.8712 13.2 76.7512 13.2ZM76.6512 22.64C77.3845 22.64 78.0512 22.4734 78.6512 22.14C79.2512 21.7934 79.7178 21.3067 80.0512 20.68C80.3978 20.0534 80.5712 19.34 80.5712 18.54C80.5712 17.74 80.3978 17.0334 80.0512 16.42C79.7178 15.7934 79.2512 15.3067 78.6512 14.96C78.0512 14.6134 77.3845 14.44 76.6512 14.44C75.9045 14.44 75.2312 14.6134 74.6312 14.96C74.0445 15.3067 73.5778 15.7934 73.2312 16.42C72.8978 17.0334 72.7312 17.74 72.7312 18.54C72.7312 19.34 72.8978 20.0534 73.2312 20.68C73.5778 21.3067 74.0445 21.7934 74.6312 22.14C75.2312 22.4734 75.9045 22.64 76.6512 22.64ZM92.8259 23.16C92.5592 23.4 92.2259 23.5867 91.8259 23.72C91.4392 23.84 91.0325 23.9 90.6059 23.9C89.6192 23.9 88.8592 23.6334 88.3259 23.1C87.7925 22.5667 87.5259 21.8134 87.5259 20.84V14.48H85.6459V13.28H87.5259V10.98H88.9459V13.28H92.1459V14.48H88.9459V20.76C88.9459 21.3867 89.0992 21.8667 89.4059 22.2C89.7259 22.52 90.1792 22.68 90.7659 22.68C91.0592 22.68 91.3392 22.6334 91.6059 22.54C91.8859 22.4467 92.1259 22.3134 92.3259 22.14L92.8259 23.16ZM101.491 13.2C102.864 13.2 103.918 13.5467 104.651 14.24C105.384 14.92 105.751 15.9334 105.751 17.28V23.8H104.391V22.16C104.071 22.7067 103.598 23.1334 102.971 23.44C102.358 23.7467 101.624 23.9 100.771 23.9C99.5975 23.9 98.6642 23.62 97.9709 23.06C97.2775 22.5 96.9309 21.76 96.9309 20.84C96.9309 19.9467 97.2509 19.2267 97.8909 18.68C98.5442 18.1334 99.5775 17.86 100.991 17.86H104.331V17.22C104.331 16.3134 104.078 15.6267 103.571 15.16C103.064 14.68 102.324 14.44 101.351 14.44C100.684 14.44 100.044 14.5534 99.4309 14.78C98.8175 14.9934 98.2909 15.2934 97.8509 15.68L97.2109 14.62C97.7442 14.1667 98.3842 13.82 99.1309 13.58C99.8775 13.3267 100.664 13.2 101.491 13.2ZM100.991 22.78C101.791 22.78 102.478 22.6 103.051 22.24C103.624 21.8667 104.051 21.3334 104.331 20.64V18.92H101.031C99.2309 18.92 98.3309 19.5467 98.3309 20.8C98.3309 21.4134 98.5642 21.9 99.0309 22.26C99.4975 22.6067 100.151 22.78 100.991 22.78ZM115.908 18.52L113.428 20.8V23.8H112.008V8.96005H113.428V19.02L119.708 13.28H121.468L116.968 17.58L121.888 23.8H120.148L115.908 18.52ZM135.15 18.98H126.35C126.43 20.0734 126.85 20.96 127.61 21.64C128.37 22.3067 129.33 22.64 130.49 22.64C131.143 22.64 131.743 22.5267 132.29 22.3C132.836 22.06 133.31 21.7134 133.71 21.26L134.51 22.18C134.043 22.74 133.456 23.1667 132.75 23.46C132.056 23.7534 131.29 23.9 130.45 23.9C129.37 23.9 128.41 23.6734 127.57 23.22C126.743 22.7534 126.096 22.1134 125.63 21.3C125.163 20.4867 124.93 19.5667 124.93 18.54C124.93 17.5134 125.15 16.5934 125.59 15.78C126.043 14.9667 126.656 14.3334 127.43 13.88C128.216 13.4267 129.096 13.2 130.07 13.2C131.043 13.2 131.916 13.4267 132.69 13.88C133.463 14.3334 134.07 14.9667 134.51 15.78C134.95 16.58 135.17 17.5 135.17 18.54L135.15 18.98ZM130.07 14.42C129.056 14.42 128.203 14.7467 127.51 15.4C126.83 16.04 126.443 16.88 126.35 17.92H133.81C133.716 16.88 133.323 16.04 132.63 15.4C131.95 14.7467 131.096 14.42 130.07 14.42ZM148.86 9.68005C150.647 9.68005 152.24 10.0534 153.64 10.8C155.053 11.5334 156.153 12.5734 156.94 13.92C157.727 15.2534 158.12 16.78 158.12 18.5C158.12 20.1934 157.827 21.52 157.24 22.48C156.653 23.4267 155.84 23.9 154.8 23.9C154.147 23.9 153.613 23.7067 153.2 23.32C152.8 22.9334 152.58 22.4 152.54 21.72C152.14 22.4134 151.593 22.9534 150.9 23.34C150.207 23.7134 149.42 23.9 148.54 23.9C147.607 23.9 146.76 23.68 146 23.24C145.253 22.7867 144.66 22.1667 144.22 21.38C143.793 20.5934 143.58 19.7067 143.58 18.72C143.58 17.7334 143.793 16.8534 144.22 16.08C144.66 15.2934 145.253 14.68 146 14.24C146.76 13.8 147.607 13.58 148.54 13.58C149.393 13.58 150.16 13.7667 150.84 14.14C151.533 14.5 152.087 15.0134 152.5 15.68V13.66H153.8V21.24C153.8 21.7734 153.913 22.16 154.14 22.4C154.367 22.64 154.667 22.76 155.04 22.76C155.667 22.76 156.16 22.3867 156.52 21.64C156.893 20.8934 157.08 19.8534 157.08 18.52C157.08 16.9734 156.733 15.6134 156.04 14.44C155.347 13.2534 154.373 12.3334 153.12 11.68C151.88 11.0267 150.46 10.7 148.86 10.7C147.247 10.7 145.813 11.04 144.56 11.72C143.32 12.3867 142.353 13.3334 141.66 14.56C140.967 15.7734 140.62 17.16 140.62 18.72C140.62 20.28 140.96 21.6734 141.64 22.9C142.333 24.1267 143.293 25.08 144.52 25.76C145.76 26.44 147.18 26.78 148.78 26.78C149.407 26.78 150.06 26.7067 150.74 26.56C151.433 26.4134 152.06 26.1934 152.62 25.9L152.96 26.88C152.387 27.1734 151.72 27.4 150.96 27.56C150.213 27.72 149.487 27.8 148.78 27.8C146.967 27.8 145.36 27.4134 143.96 26.64C142.56 25.8667 141.467 24.7934 140.68 23.42C139.907 22.0334 139.52 20.4667 139.52 18.72C139.52 16.96 139.913 15.4 140.7 14.04C141.487 12.6667 142.587 11.6 144 10.84C145.427 10.0667 147.047 9.68005 148.86 9.68005ZM148.72 22.74C149.44 22.74 150.087 22.5734 150.66 22.24C151.233 21.9067 151.687 21.44 152.02 20.84C152.353 20.2267 152.52 19.52 152.52 18.72C152.52 17.9334 152.353 17.24 152.02 16.64C151.687 16.0267 151.233 15.56 150.66 15.24C150.087 14.9067 149.44 14.74 148.72 14.74C147.987 14.74 147.327 14.9067 146.74 15.24C146.167 15.5734 145.713 16.04 145.38 16.64C145.06 17.24 144.9 17.9334 144.9 18.72C144.9 19.5067 145.06 20.2067 145.38 20.82C145.713 21.42 146.167 21.8934 146.74 22.24C147.327 22.5734 147.987 22.74 148.72 22.74ZM176.644 13.2C177.964 13.2 178.997 13.58 179.744 14.34C180.504 15.1 180.884 16.22 180.884 17.7V23.8H179.464V17.84C179.464 16.7467 179.197 15.9134 178.664 15.34C178.144 14.7667 177.404 14.48 176.444 14.48C175.351 14.48 174.491 14.82 173.864 15.5C173.237 16.1667 172.924 17.0934 172.924 18.28V23.8H171.504V17.84C171.504 16.7467 171.237 15.9134 170.704 15.34C170.184 14.7667 169.437 14.48 168.464 14.48C167.384 14.48 166.524 14.82 165.884 15.5C165.257 16.1667 164.944 17.0934 164.944 18.28V23.8H163.524V13.28H164.884V15.2C165.257 14.56 165.777 14.0667 166.444 13.72C167.111 13.3734 167.877 13.2 168.744 13.2C169.624 13.2 170.384 13.3867 171.024 13.76C171.677 14.1334 172.164 14.6867 172.484 15.42C172.871 14.7267 173.424 14.1867 174.144 13.8C174.877 13.4 175.711 13.2 176.644 13.2ZM190.815 13.2C192.188 13.2 193.242 13.5467 193.975 14.24C194.708 14.92 195.075 15.9334 195.075 17.28V23.8H193.715V22.16C193.395 22.7067 192.922 23.1334 192.295 23.44C191.682 23.7467 190.948 23.9 190.095 23.9C188.922 23.9 187.988 23.62 187.295 23.06C186.602 22.5 186.255 21.76 186.255 20.84C186.255 19.9467 186.575 19.2267 187.215 18.68C187.868 18.1334 188.902 17.86 190.315 17.86H193.655V17.22C193.655 16.3134 193.402 15.6267 192.895 15.16C192.388 14.68 191.648 14.44 190.675 14.44C190.008 14.44 189.368 14.5534 188.755 14.78C188.142 14.9934 187.615 15.2934 187.175 15.68L186.535 14.62C187.068 14.1667 187.708 13.82 188.455 13.58C189.202 13.3267 189.988 13.2 190.815 13.2ZM190.315 22.78C191.115 22.78 191.802 22.6 192.375 22.24C192.948 21.8667 193.375 21.3334 193.655 20.64V18.92H190.355C188.555 18.92 187.655 19.5467 187.655 20.8C187.655 21.4134 187.888 21.9 188.355 22.26C188.822 22.6067 189.475 22.78 190.315 22.78ZM201.332 13.28H202.752V23.8H201.332V13.28ZM202.052 10.98C201.759 10.98 201.512 10.88 201.312 10.68C201.112 10.48 201.012 10.24 201.012 9.96005C201.012 9.69338 201.112 9.46005 201.312 9.26005C201.512 9.06005 201.759 8.96005 202.052 8.96005C202.345 8.96005 202.592 9.06005 202.792 9.26005C202.992 9.44671 203.092 9.67338 203.092 9.94005C203.092 10.2334 202.992 10.48 202.792 10.68C202.592 10.88 202.345 10.98 202.052 10.98ZM209.103 8.96005H210.523V23.8H209.103V8.96005ZM217.014 23.9C216.721 23.9 216.467 23.7934 216.254 23.58C216.054 23.3667 215.954 23.1067 215.954 22.8C215.954 22.4934 216.054 22.24 216.254 22.04C216.467 21.8267 216.721 21.72 217.014 21.72C217.307 21.72 217.561 21.8267 217.774 22.04C217.987 22.24 218.094 22.4934 218.094 22.8C218.094 23.1067 217.987 23.3667 217.774 23.58C217.561 23.7934 217.307 23.9 217.014 23.9ZM224.872 15.34C225.206 14.6334 225.699 14.1 226.352 13.74C227.019 13.38 227.839 13.2 228.812 13.2V14.58L228.472 14.56C227.366 14.56 226.499 14.9 225.872 15.58C225.246 16.26 224.932 17.2134 224.932 18.44V23.8H223.512V13.28H224.872V15.34ZM243.42 13.28V23.8H242.06V21.88C241.686 22.52 241.173 23.02 240.52 23.38C239.866 23.7267 239.12 23.9 238.28 23.9C236.906 23.9 235.82 23.52 235.02 22.76C234.233 21.9867 233.84 20.86 233.84 19.38V13.28H235.26V19.24C235.26 20.3467 235.533 21.1867 236.08 21.76C236.626 22.3334 237.406 22.62 238.42 22.62C239.526 22.62 240.4 22.2867 241.04 21.62C241.68 20.94 242 20 242 18.8V13.28H243.42Z" fill="white"/>
<path d="M35.5078 5.61205C35.0005 4.86899 34.1471 4.37793 33.1841 4.37793H2.81589C1.87314 4.37793 1.03951 4.85155 0.528198 5.56874L18.0557 20.1836L35.5078 5.61205Z" fill="white"/>
<path d="M0.00338745 8.05945V28.8095C0.00338745 30.3564 1.26901 31.622 2.81589 31.622H33.1841C34.731 31.622 35.9966 30.3564 35.9966 28.8095V8.13426L18.0557 23.1131L0.00338745 8.05945Z" fill="white"/>
</svg>
