<svg width="38" height="38" viewBox="0 0 38 38" fill="none" xmlns="http://www.w3.org/2000/svg">
<path opacity="0.9" d="M19.95 0.949951C13.3 0.949951 7.41 4.74995 4.37 10.55L0 5.94995V18.95H12.35L7.03 13.35C9.5 8.34995 14.25 4.94995 19.95 4.94995C27.74 4.94995 34.2 11.75 34.2 19.95C34.2 28.15 27.74 34.95 19.95 34.95C13.68 34.95 8.55 30.75 6.46 24.95H2.47C4.56 32.95 11.59 38.95 19.95 38.95C30.02 38.95 38 30.35 38 19.95C38 9.54995 29.83 0.949951 19.95 0.949951ZM17.1 10.95V21.15L26.03 26.75L27.55 24.15L19.95 19.35V10.95H17.1V10.95Z" fill="black"/>
</svg>
