<svg width="158" height="122" viewBox="0 0 158 122" fill="none" xmlns="http://www.w3.org/2000/svg">
<g filter="url(#filter0_d_98_782)">
<circle cx="77.8632" cy="49.4632" r="39.4632" fill="black"/>
</g>
<path d="M27.247 99H31.967V109.34H38.287V113H27.247V99ZM46.9461 101.86C48.8661 101.86 50.3328 102.293 51.3461 103.16C52.3594 104.013 52.8661 105.333 52.8661 107.12V113H48.6661V111.56C48.1461 112.653 47.1128 113.2 45.5661 113.2C44.6994 113.2 43.9594 113.053 43.3461 112.76C42.7461 112.453 42.2861 112.047 41.9661 111.54C41.6594 111.02 41.5061 110.44 41.5061 109.8C41.5061 108.72 41.9194 107.9 42.7461 107.34C43.5728 106.78 44.8261 106.5 46.5061 106.5H48.3261C48.1794 105.647 47.4928 105.22 46.2661 105.22C45.7728 105.22 45.2728 105.3 44.7661 105.46C44.2594 105.607 43.8261 105.813 43.4661 106.08L42.0261 103.1C42.6528 102.713 43.4061 102.413 44.2861 102.2C45.1794 101.973 46.0661 101.86 46.9461 101.86ZM46.9261 110.48C47.2461 110.48 47.5328 110.393 47.7861 110.22C48.0394 110.047 48.2261 109.787 48.3461 109.44V108.68H47.2261C46.3061 108.68 45.8461 108.987 45.8461 109.6C45.8461 109.853 45.9394 110.067 46.1261 110.24C46.3261 110.4 46.5928 110.48 46.9261 110.48ZM64.5195 101.86C65.4795 101.86 66.3595 102.093 67.1595 102.56C67.9729 103.013 68.6129 103.673 69.0795 104.54C69.5595 105.407 69.7995 106.407 69.7995 107.54C69.7995 108.673 69.5595 109.673 69.0795 110.54C68.6129 111.393 67.9729 112.053 67.1595 112.52C66.3595 112.973 65.4795 113.2 64.5195 113.2C63.3062 113.2 62.3795 112.887 61.7395 112.26V116.88H57.2195V102.06H61.5195V102.96C62.1729 102.227 63.1729 101.86 64.5195 101.86ZM63.4395 109.68C63.9595 109.68 64.3862 109.493 64.7195 109.12C65.0529 108.747 65.2195 108.22 65.2195 107.54C65.2195 106.86 65.0529 106.333 64.7195 105.96C64.3862 105.573 63.9595 105.38 63.4395 105.38C62.9195 105.38 62.4929 105.573 62.1595 105.96C61.8262 106.333 61.6595 106.86 61.6595 107.54C61.6595 108.22 61.8262 108.747 62.1595 109.12C62.4929 109.493 62.9195 109.68 63.4395 109.68ZM75.905 102.66H71.805V99H84.725V102.66H80.625V113H75.905V102.66ZM92.6031 101.86C94.5231 101.86 95.9898 102.293 97.0031 103.16C98.0165 104.013 98.5231 105.333 98.5231 107.12V113H94.3231V111.56C93.8031 112.653 92.7698 113.2 91.2231 113.2C90.3565 113.2 89.6165 113.053 89.0031 112.76C88.4031 112.453 87.9431 112.047 87.6231 111.54C87.3165 111.02 87.1631 110.44 87.1631 109.8C87.1631 108.72 87.5765 107.9 88.4031 107.34C89.2298 106.78 90.4831 106.5 92.1631 106.5H93.9831C93.8365 105.647 93.1498 105.22 91.9231 105.22C91.4298 105.22 90.9298 105.3 90.4231 105.46C89.9165 105.607 89.4831 105.813 89.1231 106.08L87.6831 103.1C88.3098 102.713 89.0631 102.413 89.9431 102.2C90.8365 101.973 91.7231 101.86 92.6031 101.86ZM92.5831 110.48C92.9031 110.48 93.1898 110.393 93.4431 110.22C93.6965 110.047 93.8831 109.787 94.0031 109.44V108.68H92.8831C91.9631 108.68 91.5031 108.987 91.5031 109.6C91.5031 109.853 91.5965 110.067 91.7831 110.24C91.9831 110.4 92.2498 110.48 92.5831 110.48ZM108.117 109.64L107.397 110.42V113H102.877V98.16H107.397V105.24L110.537 102.06H115.877L111.357 106.8L116.237 113H110.777L108.117 109.64ZM130.667 107.52C130.667 107.587 130.647 107.94 130.607 108.58H123.007C123.167 108.993 123.433 109.313 123.807 109.54C124.18 109.753 124.647 109.86 125.207 109.86C125.687 109.86 126.087 109.8 126.407 109.68C126.74 109.56 127.1 109.353 127.487 109.06L129.847 111.44C128.78 112.613 127.187 113.2 125.067 113.2C123.747 113.2 122.587 112.96 121.587 112.48C120.587 111.987 119.813 111.307 119.267 110.44C118.72 109.573 118.447 108.6 118.447 107.52C118.447 106.427 118.713 105.453 119.247 104.6C119.793 103.733 120.533 103.06 121.467 102.58C122.413 102.1 123.473 101.86 124.647 101.86C125.753 101.86 126.76 102.08 127.667 102.52C128.587 102.96 129.313 103.607 129.847 104.46C130.393 105.313 130.667 106.333 130.667 107.52ZM124.687 104.94C124.22 104.94 123.833 105.067 123.527 105.32C123.22 105.573 123.02 105.933 122.927 106.4H126.447C126.353 105.947 126.153 105.593 125.847 105.34C125.54 105.073 125.153 104.94 124.687 104.94Z" fill="black"/>
<g clip-path="url(#clip0_98_782)">
<path d="M59.6403 58.9599H96.3602C97.8451 58.9599 99.1159 58.4315 100.173 57.3733C101.231 56.3155 101.76 55.0448 101.76 53.5601V29.8003C101.76 28.3152 101.231 27.0444 100.173 25.9867C99.1159 24.929 97.8453 24.4005 96.3602 24.4005H59.6403C58.1554 24.4005 56.8839 24.929 55.8264 25.9867C54.7688 27.0443 54.2402 28.3152 54.2402 29.8003V53.5602C54.2402 55.0449 54.7688 56.3159 55.8264 57.3734C56.8839 58.4308 58.1554 58.9599 59.6403 58.9599ZM58.5599 29.8003C58.5599 29.5078 58.6669 29.2542 58.8806 29.041C59.0947 28.8275 59.3479 28.7204 59.6403 28.7204H96.3594C96.6523 28.7204 96.9054 28.8273 97.1191 29.041C97.3322 29.2548 97.4391 29.5078 97.4391 29.8003V53.5602C97.4391 53.8523 97.3322 54.106 97.1191 54.3191C96.9054 54.5328 96.6523 54.6399 96.3594 54.6399H59.64C59.3474 54.6399 59.0942 54.5332 58.8802 54.3191C58.6669 54.1052 58.5599 53.8523 58.5599 53.5602V29.8003Z" fill="white"/>
<path d="M105 61.1202H51H45.6V64.3597C45.6 65.2602 46.1285 66.0248 47.186 66.6546C48.2441 67.2844 49.515 67.5996 51 67.5996H105C106.485 67.5996 107.756 67.2844 108.813 66.6546C109.871 66.0248 110.4 65.2602 110.4 64.3597V61.1202H105ZM80.6999 64.3597H75.3C74.9404 64.3597 74.7603 64.1793 74.7603 63.8197C74.7603 63.4596 74.9404 63.2789 75.3 63.2789H80.6999C81.0599 63.2789 81.2403 63.4596 81.2403 63.8197C81.2403 64.1793 81.0599 64.3597 80.6999 64.3597Z" fill="white"/>
</g>
<g clip-path="url(#clip1_98_782)">
<path d="M87.3818 28H69.8182V36.7818L74.8364 41.8L69.8182 46.8182V55.6H87.3818V46.8182L82.3636 41.8L87.3818 36.7818V28H87.3818ZM86.1273 36.2625L81.4767 40.9131L80.5897 41.8L81.4767 42.687L86.1273 47.3376V54.3455H71.0727V47.3376L75.7233 42.687L76.6102 41.8L75.7233 40.9131L71.0727 36.2625V29.2546H86.1272V36.2625H86.1273Z" fill="white"/>
<path d="M87.225 36.1321V33.175H69.975V36.1321L78.6 43.525L87.225 36.1321Z" fill="white"/>
<path d="M69.975 55.6H87.225V53.3L78.6 48.7L69.975 53.3V55.6Z" fill="white"/>
</g>
<defs>
<filter id="filter0_d_98_782" x="28.4" y="0" width="108.926" height="108.926" filterUnits="userSpaceOnUse" color-interpolation-filters="sRGB">
<feFlood flood-opacity="0" result="BackgroundImageFix"/>
<feColorMatrix in="SourceAlpha" type="matrix" values="0 0 0 0 0 0 0 0 0 0 0 0 0 0 0 0 0 0 127 0" result="hardAlpha"/>
<feOffset dx="5" dy="5"/>
<feGaussianBlur stdDeviation="7.5"/>
<feComposite in2="hardAlpha" operator="out"/>
<feColorMatrix type="matrix" values="0 0 0 0 0 0 0 0 0 0 0 0 0 0 0 0 0 0 0.25 0"/>
<feBlend mode="normal" in2="BackgroundImageFix" result="effect1_dropShadow_98_782"/>
<feBlend mode="normal" in="SourceGraphic" in2="effect1_dropShadow_98_782" result="shape"/>
</filter>
<clipPath id="clip0_98_782">
<rect width="64.8" height="64.8" fill="white" transform="translate(45.6 13.6)"/>
</clipPath>
<clipPath id="clip1_98_782">
<rect width="27.6" height="27.6" fill="white" transform="translate(64.8 28)"/>
</clipPath>
</defs>
</svg>
