<svg width="117" height="96" viewBox="0 0 117 96" fill="none" xmlns="http://www.w3.org/2000/svg">
<g filter="url(#filter0_d_98_782)">
<circle cx="57.909" cy="39.3499" r="29.3499" fill="black"/>
</g>
<path d="M7.09425 91.4731V77.4731H11.8143V87.8131H18.1343V91.4731H7.09425ZM28.5133 91.4731V89.5331L28.1933 89.0131V85.3331C28.1933 84.7998 28.0266 84.3931 27.6933 84.1131C27.3733 83.8331 26.8466 83.6931 26.1133 83.6931C25.62 83.6931 25.12 83.7731 24.6133 83.9331C24.1066 84.0798 23.6733 84.2864 23.3133 84.5531L21.8733 81.5731C22.5133 81.1731 23.28 80.8664 24.1733 80.6531C25.0666 80.4398 25.94 80.3331 26.7933 80.3331C28.6733 80.3331 30.1266 80.7531 31.1533 81.5931C32.1933 82.4331 32.7133 83.7664 32.7133 85.5931V91.4731H28.5133ZM25.4133 91.6731C24.52 91.6731 23.7733 91.5198 23.1733 91.2131C22.5733 90.9064 22.12 90.4998 21.8133 89.9931C21.5066 89.4731 21.3533 88.8998 21.3533 88.2731C21.3533 87.5664 21.5333 86.9664 21.8933 86.4731C22.2533 85.9798 22.8 85.6064 23.5333 85.3531C24.28 85.0998 25.22 84.9731 26.3533 84.9731H28.6333V87.1531H27.0733C26.5933 87.1531 26.24 87.2331 26.0133 87.3931C25.8 87.5398 25.6933 87.7664 25.6933 88.0731C25.6933 88.3264 25.7866 88.5398 25.9733 88.7131C26.1733 88.8731 26.44 88.9531 26.7733 88.9531C27.08 88.9531 27.36 88.8731 27.6133 88.7131C27.88 88.5398 28.0733 88.2731 28.1933 87.9131L28.7733 89.2531C28.6 90.0664 28.2333 90.6731 27.6733 91.0731C27.1133 91.4731 26.36 91.6731 25.4133 91.6731ZM44.3668 91.6731C43.4201 91.6731 42.6334 91.4731 42.0068 91.0731C41.3934 90.6598 40.9401 90.0398 40.6468 89.2131C40.3534 88.3731 40.2068 87.3064 40.2068 86.0131C40.2068 84.6931 40.3401 83.6198 40.6068 82.7931C40.8868 81.9531 41.3334 81.3331 41.9468 80.9331C42.5601 80.5331 43.3668 80.3331 44.3668 80.3331C45.3268 80.3331 46.2068 80.5664 47.0068 81.0331C47.8068 81.4864 48.4468 82.1398 48.9268 82.9931C49.4068 83.8331 49.6468 84.8398 49.6468 86.0131C49.6468 87.1864 49.4068 88.1998 48.9268 89.0531C48.4468 89.8931 47.8068 90.5398 47.0068 90.9931C46.2068 91.4464 45.3268 91.6731 44.3668 91.6731ZM37.0668 95.3531V80.5331H41.3668V82.0131L41.3868 86.0131L41.5868 90.0131V95.3531H37.0668ZM43.2868 88.1531C43.6201 88.1531 43.9201 88.0731 44.1868 87.9131C44.4534 87.7531 44.6668 87.5131 44.8268 87.1931C44.9868 86.8731 45.0668 86.4798 45.0668 86.0131C45.0668 85.5331 44.9868 85.1331 44.8268 84.8131C44.6668 84.4931 44.4534 84.2531 44.1868 84.0931C43.9201 83.9331 43.6201 83.8531 43.2868 83.8531C42.9534 83.8531 42.6534 83.9331 42.3868 84.0931C42.1201 84.2531 41.9068 84.4931 41.7468 84.8131C41.5868 85.1331 41.5068 85.5331 41.5068 86.0131C41.5068 86.4798 41.5868 86.8731 41.7468 87.1931C41.9068 87.5131 42.1201 87.7531 42.3868 87.9131C42.6534 88.0731 42.9534 88.1531 43.2868 88.1531ZM55.7522 91.4731V81.1331H51.6522V77.4731H64.5722V81.1331H60.4722V91.4731H55.7522ZM74.1703 91.4731V89.5331L73.8503 89.0131V85.3331C73.8503 84.7998 73.6837 84.3931 73.3503 84.1131C73.0303 83.8331 72.5037 83.6931 71.7703 83.6931C71.277 83.6931 70.777 83.7731 70.2703 83.9331C69.7637 84.0798 69.3303 84.2864 68.9703 84.5531L67.5303 81.5731C68.1703 81.1731 68.937 80.8664 69.8303 80.6531C70.7237 80.4398 71.597 80.3331 72.4503 80.3331C74.3303 80.3331 75.7837 80.7531 76.8103 81.5931C77.8503 82.4331 78.3703 83.7664 78.3703 85.5931V91.4731H74.1703ZM71.0703 91.6731C70.177 91.6731 69.4303 91.5198 68.8303 91.2131C68.2303 90.9064 67.777 90.4998 67.4703 89.9931C67.1637 89.4731 67.0103 88.8998 67.0103 88.2731C67.0103 87.5664 67.1903 86.9664 67.5503 86.4731C67.9103 85.9798 68.457 85.6064 69.1903 85.3531C69.937 85.0998 70.877 84.9731 72.0103 84.9731H74.2903V87.1531H72.7303C72.2503 87.1531 71.897 87.2331 71.6703 87.3931C71.457 87.5398 71.3503 87.7664 71.3503 88.0731C71.3503 88.3264 71.4437 88.5398 71.6303 88.7131C71.8303 88.8731 72.097 88.9531 72.4303 88.9531C72.737 88.9531 73.017 88.8731 73.2703 88.7131C73.537 88.5398 73.7303 88.2731 73.8503 87.9131L74.4303 89.2531C74.257 90.0664 73.8903 90.6731 73.3303 91.0731C72.7703 91.4731 72.017 91.6731 71.0703 91.6731ZM86.5038 89.6731L86.6038 84.3531L90.3838 80.5331H95.7238L90.7238 85.7731L88.4638 87.5931L86.5038 89.6731ZM82.7238 91.4731V76.6331H87.2438V91.4731H82.7238ZM90.6238 91.4731L87.6238 87.6731L90.4038 84.2531L96.0838 91.4731H90.6238ZM104.933 91.6731C103.6 91.6731 102.433 91.4264 101.433 90.9331C100.447 90.4398 99.68 89.7664 99.1333 88.9131C98.5867 88.0464 98.3133 87.0731 98.3133 85.9931C98.3133 84.8864 98.58 83.9064 99.1133 83.0531C99.66 82.1998 100.4 81.5331 101.333 81.0531C102.28 80.5731 103.34 80.3331 104.513 80.3331C105.593 80.3331 106.587 80.5464 107.493 80.9731C108.413 81.3998 109.147 82.0331 109.693 82.8731C110.253 83.7131 110.533 84.7531 110.533 85.9931C110.533 86.1531 110.527 86.3331 110.513 86.5331C110.5 86.7198 110.487 86.8931 110.473 87.0531H102.053V84.8731H108.073L106.373 85.4531C106.373 85.0264 106.293 84.6664 106.133 84.3731C105.987 84.0664 105.78 83.8331 105.513 83.6731C105.247 83.4998 104.927 83.4131 104.553 83.4131C104.18 83.4131 103.853 83.4998 103.573 83.6731C103.307 83.8331 103.1 84.0664 102.953 84.3731C102.807 84.6664 102.733 85.0264 102.733 85.4531V86.1331C102.733 86.5998 102.827 86.9998 103.013 87.3331C103.2 87.6664 103.467 87.9198 103.813 88.0931C104.16 88.2531 104.58 88.3331 105.073 88.3331C105.58 88.3331 105.993 88.2664 106.313 88.1331C106.647 87.9998 106.993 87.7998 107.353 87.5331L109.713 89.9131C109.18 90.4864 108.52 90.9264 107.733 91.2331C106.96 91.5264 106.027 91.6731 104.933 91.6731Z" fill="black"/>
<g clip-path="url(#clip0_98_782)">
<path d="M44.3561 46.4129H71.6657C72.7701 46.4129 73.7152 46.0199 74.5016 45.2328C75.2884 44.4461 75.6816 43.5011 75.6816 42.3968V24.726C75.6816 23.6215 75.2884 22.6764 74.5016 21.8897C73.7152 21.1031 72.7702 20.7101 71.6657 20.7101H44.3561C43.2517 20.7101 42.3061 21.1031 41.5196 21.8897C40.733 22.6763 40.3399 23.6215 40.3399 24.726V42.3969C40.3399 43.5012 40.733 44.4464 41.5196 45.2329C42.3061 46.0193 43.2517 46.4129 44.3561 46.4129ZM43.5526 24.726C43.5526 24.5085 43.6321 24.3199 43.7911 24.1613C43.9503 24.0025 44.1386 23.9229 44.3561 23.9229H71.6651C71.8829 23.9229 72.0712 24.0024 72.2301 24.1613C72.3886 24.3204 72.4681 24.5085 72.4681 24.726V42.3969C72.4681 42.6142 72.3886 42.8028 72.2301 42.9613C72.0712 43.1203 71.8829 43.2 71.6651 43.2H44.3559C44.1383 43.2 43.95 43.1206 43.7908 42.9613C43.6321 42.8022 43.5526 42.6142 43.5526 42.3969V24.726Z" fill="white"/>
<path d="M78.0915 48.0195H37.9301H33.914V50.4288C33.914 51.0985 34.307 51.6672 35.0935 52.1356C35.8805 52.604 36.8257 52.8384 37.9301 52.8384H78.0915C79.1957 52.8384 80.141 52.604 80.9275 52.1356C81.714 51.6672 82.1075 51.0985 82.1075 50.4288V48.0195H78.0915ZM60.0188 50.4288H56.0027C55.7352 50.4288 55.6013 50.2946 55.6013 50.0272C55.6013 49.7594 55.7352 49.625 56.0027 49.625H60.0188C60.2865 49.625 60.4206 49.7594 60.4206 50.0272C60.4206 50.2946 60.2865 50.4288 60.0188 50.4288Z" fill="white"/>
</g>
<g clip-path="url(#clip1_98_782)">
<path d="M64.9883 23.3871H51.9257V29.9184L55.6579 33.6506L51.9257 37.3827V43.914H64.9883V37.3827L61.2561 33.6506L64.9883 29.9184V23.3871H64.9883ZM64.0552 29.5321L60.5964 32.9909L59.9368 33.6506L60.5964 34.3102L64.0552 37.769V42.981H52.8587V37.769L56.3175 34.3102L56.9772 33.6506L56.3175 32.9909L52.8587 29.5321V24.3202H64.0552V29.5321H64.0552Z" fill="white"/>
<path d="M64.8717 29.4352V27.2359H52.0424V29.4352L58.457 34.9335L64.8717 29.4352Z" fill="white"/>
<path d="M52.0424 43.914H64.8717V42.2034L58.457 38.7823L52.0424 42.2034V43.914Z" fill="white"/>
</g>
<defs>
<filter id="filter0_d_98_782" x="18.5591" y="0" width="88.6998" height="88.6998" filterUnits="userSpaceOnUse" color-interpolation-filters="sRGB">
<feFlood flood-opacity="0" result="BackgroundImageFix"/>
<feColorMatrix in="SourceAlpha" type="matrix" values="0 0 0 0 0 0 0 0 0 0 0 0 0 0 0 0 0 0 127 0" result="hardAlpha"/>
<feOffset dx="5" dy="5"/>
<feGaussianBlur stdDeviation="7.5"/>
<feComposite in2="hardAlpha" operator="out"/>
<feColorMatrix type="matrix" values="0 0 0 0 0 0 0 0 0 0 0 0 0 0 0 0 0 0 0.25 0"/>
<feBlend mode="normal" in2="BackgroundImageFix" result="effect1_dropShadow_98_782"/>
<feBlend mode="normal" in="SourceGraphic" in2="effect1_dropShadow_98_782" result="shape"/>
</filter>
<clipPath id="clip0_98_782">
<rect width="48.1936" height="48.1936" fill="white" transform="translate(33.914 12.6774)"/>
</clipPath>
<clipPath id="clip1_98_782">
<rect width="20.5269" height="20.5269" fill="white" transform="translate(48.1935 23.3871)"/>
</clipPath>
</defs>
</svg>
