<svg width="38" height="38" viewBox="0 0 38 38" fill="none" xmlns="http://www.w3.org/2000/svg">
<g clip-path="url(#clip0_199_25)">
<path d="M19 14.25C18.5303 14.25 18.0711 14.1107 17.6805 13.8497C17.29 13.5888 16.9855 13.2178 16.8058 12.7839C16.626 12.3499 16.579 11.8724 16.6706 11.4117C16.7623 10.951 16.9885 10.5278 17.3206 10.1956C17.6528 9.86347 18.076 9.63728 18.5367 9.54564C18.9974 9.454 19.4749 9.50103 19.9089 9.68079C20.3428 9.86055 20.7138 10.165 20.9747 10.5555C21.2357 10.9461 21.375 11.4053 21.375 11.875C21.375 12.5049 21.1248 13.109 20.6794 13.5544C20.234 13.9998 19.6299 14.25 19 14.25Z" fill="black"/>
<path d="M19 34.4375C15.9468 34.4375 12.9621 33.5321 10.4234 31.8358C7.88471 30.1395 5.90604 27.7285 4.73762 24.9077C3.56919 22.0868 3.26347 18.9829 3.85913 15.9883C4.45479 12.9937 5.92507 10.243 8.08405 8.08405C10.243 5.92507 12.9937 4.45479 15.9883 3.85913C18.9829 3.26347 22.0868 3.56919 24.9077 4.73762C27.7285 5.90604 30.1395 7.88471 31.8358 10.4234C33.5321 12.9621 34.4375 15.9468 34.4375 19C34.4375 23.0943 32.8111 27.0209 29.916 29.916C27.0209 32.8111 23.0943 34.4375 19 34.4375ZM19 5.93751C16.4165 5.93751 13.891 6.70361 11.7429 8.13894C9.59475 9.57426 7.9205 11.6143 6.93183 14.0012C5.94316 16.3881 5.68448 19.0145 6.1885 21.5484C6.69252 24.0823 7.9366 26.4098 9.76342 28.2366C11.5902 30.0634 13.9178 31.3075 16.4516 31.8115C18.9855 32.3155 21.6119 32.0569 23.9988 31.0682C26.3857 30.0795 28.4258 28.4053 29.8611 26.2571C31.2964 24.109 32.0625 21.5835 32.0625 19C32.0625 15.5356 30.6863 12.2131 28.2366 9.76342C25.7869 7.31373 22.4644 5.93751 19 5.93751Z" fill="black"/>
<path d="M19 28.5C18.3701 28.5 17.766 28.2498 17.3206 27.8044C16.8752 27.359 16.625 26.7549 16.625 26.125V19C16.625 18.3701 16.8752 17.766 17.3206 17.3206C17.766 16.8752 18.3701 16.625 19 16.625C19.6299 16.625 20.234 16.8752 20.6794 17.3206C21.1248 17.766 21.375 18.3701 21.375 19V26.125C21.375 26.7549 21.1248 27.359 20.6794 27.8044C20.234 28.2498 19.6299 28.5 19 28.5Z" fill="black"/>
</g>
<defs>
<clipPath id="clip0_199_25">
<path d="M0 0H38V38H31.8C20.7876 38 15.2814 38 11.0604 35.8909C7.18616 33.955 4.04497 30.8138 2.10911 26.9396C0 22.7186 0 17.2124 0 6.2V0Z" fill="white"/>
</clipPath>
</defs>
</svg>
