<svg width="28" height="28" viewBox="0 0 28 28" fill="none" xmlns="http://www.w3.org/2000/svg">
<g clip-path="url(#clip0_98_902)">
<path d="M27.4758 21.9985L27.3384 21.5845C27.013 20.6175 25.9466 19.6089 24.9668 19.3431L21.3408 18.3526C20.3575 18.0851 18.9548 18.4448 18.2353 19.1642L16.923 20.4765C12.1537 19.1878 8.41381 15.4478 7.12681 10.6794L8.4392 9.36701C9.15865 8.64756 9.51832 7.24673 9.2508 6.2634L8.26203 2.63556C7.99451 1.65403 6.98405 0.587583 6.01883 0.265804L5.60491 0.126634C4.63784 -0.195145 3.25864 0.130278 2.53925 0.849668L0.576181 2.81453C0.22548 3.16338 0.00133992 4.16116 0.00133992 4.16481C-0.0673194 10.3974 2.37654 16.4021 6.78519 20.8108C11.183 25.2087 17.1653 27.649 23.3797 27.5965C23.4123 27.5965 24.439 27.376 24.7897 27.0271L26.7527 25.064C27.4721 24.3447 27.7975 22.9655 27.4758 21.9985Z" fill="white"/>
</g>
<defs>
<clipPath id="clip0_98_902">
<rect width="27.6" height="27.6" fill="white"/>
</clipPath>
</defs>
</svg>
