<svg width="265" height="30" viewBox="0 0 265 30" fill="none" xmlns="http://www.w3.org/2000/svg">
<path d="M45.25 13.4H41.53V17.04H40.27V13.4H36.55V12.22H40.27V8.56005H41.53V12.22H45.25V13.4ZM59.7786 5.80005V6.82005L53.9186 19.8H52.3586L58.1186 7.08005H50.9186V9.70005H49.4986V5.80005H59.7786ZM67.4359 23.68C66.6893 22.4534 66.1159 21.0467 65.7159 19.46C65.3159 17.86 65.1159 16.1467 65.1159 14.32C65.1159 12.4934 65.3159 10.78 65.7159 9.18005C66.1159 7.56672 66.6893 6.16005 67.4359 4.96005H68.7959C68.0093 6.30671 67.4293 7.75338 67.0559 9.30005C66.6959 10.8467 66.5159 12.52 66.5159 14.32C66.5159 16.12 66.6959 17.7934 67.0559 19.34C67.4293 20.8867 68.0093 22.3334 68.7959 23.68H67.4359ZM77.418 5.68005C79.2713 5.68005 80.6913 6.29338 81.678 7.52005C82.6646 8.73338 83.158 10.4534 83.158 12.68C83.158 14.24 82.8913 15.56 82.358 16.64C81.8246 17.72 81.078 18.54 80.118 19.1C79.158 19.6467 78.038 19.92 76.758 19.92C75.3713 19.92 74.2646 19.6667 73.438 19.16L74.018 18C74.6846 18.44 75.5913 18.66 76.738 18.66C78.2846 18.66 79.498 18.1734 80.378 17.2C81.258 16.2134 81.698 14.7867 81.698 12.92C81.698 12.5734 81.678 12.1934 81.638 11.78C81.2913 12.54 80.738 13.1334 79.978 13.56C79.218 13.9734 78.3446 14.18 77.358 14.18C76.438 14.18 75.618 14.0067 74.898 13.66C74.1913 13.3134 73.638 12.8267 73.238 12.2C72.838 11.56 72.638 10.82 72.638 9.98005C72.638 9.12672 72.8446 8.37338 73.258 7.72005C73.6713 7.06671 74.238 6.56671 74.958 6.22005C75.6913 5.86005 76.5113 5.68005 77.418 5.68005ZM77.578 12.96C78.2846 12.96 78.9046 12.8267 79.438 12.56C79.9846 12.2934 80.4113 11.9267 80.718 11.46C81.0246 10.9934 81.178 10.4734 81.178 9.90005C81.178 9.36671 81.0313 8.87338 80.738 8.42005C80.458 7.96671 80.038 7.60005 79.478 7.32005C78.918 7.04005 78.2513 6.90005 77.478 6.90005C76.4646 6.90005 75.638 7.18005 74.998 7.74005C74.3713 8.28671 74.058 9.02005 74.058 9.94005C74.058 10.86 74.3713 11.5934 74.998 12.14C75.638 12.6867 76.498 12.96 77.578 12.96ZM97.1664 18.52V19.8H87.3464V18.78L93.1664 13.08C93.8997 12.36 94.3931 11.74 94.6464 11.22C94.9131 10.6867 95.0464 10.1534 95.0464 9.62005C95.0464 8.79338 94.7597 8.15338 94.1864 7.70005C93.6264 7.23338 92.8197 7.00005 91.7664 7.00005C90.1264 7.00005 88.8531 7.52005 87.9464 8.56005L86.9264 7.68005C87.4731 7.04005 88.1664 6.54671 89.0064 6.20005C89.8597 5.85338 90.8197 5.68005 91.8864 5.68005C93.3131 5.68005 94.4397 6.02005 95.2664 6.70005C96.1064 7.36672 96.5264 8.28672 96.5264 9.46005C96.5264 10.18 96.3664 10.8734 96.0464 11.54C95.7264 12.2067 95.1197 12.9734 94.2264 13.84L89.4664 18.52H97.1664ZM110.934 18.52V19.8H101.114V18.78L106.934 13.08C107.667 12.36 108.16 11.74 108.414 11.22C108.68 10.6867 108.814 10.1534 108.814 9.62005C108.814 8.79338 108.527 8.15338 107.954 7.70005C107.394 7.23338 106.587 7.00005 105.534 7.00005C103.894 7.00005 102.62 7.52005 101.714 8.56005L100.694 7.68005C101.24 7.04005 101.934 6.54671 102.774 6.20005C103.627 5.85338 104.587 5.68005 105.654 5.68005C107.08 5.68005 108.207 6.02005 109.034 6.70005C109.874 7.36672 110.294 8.28672 110.294 9.46005C110.294 10.18 110.134 10.8734 109.814 11.54C109.494 12.2067 108.887 12.9734 107.994 13.84L103.234 18.52H110.934ZM114.901 23.68C115.687 22.3334 116.267 20.8934 116.641 19.36C117.014 17.8134 117.201 16.1334 117.201 14.32C117.201 12.5067 117.014 10.8334 116.641 9.30005C116.267 7.75338 115.687 6.30671 114.901 4.96005H116.261C117.007 6.16005 117.581 7.56672 117.981 9.18005C118.394 10.78 118.601 12.4934 118.601 14.32C118.601 16.1467 118.401 17.86 118.001 19.46C117.601 21.06 117.021 22.4667 116.261 23.68H114.901ZM134.003 5.80005V6.82005L128.143 19.8H126.583L132.343 7.08005H125.143V9.70005H123.723V5.80005H134.003ZM143.71 11.42C144.63 11.42 145.443 11.5934 146.15 11.94C146.87 12.2867 147.43 12.78 147.83 13.42C148.23 14.0467 148.43 14.78 148.43 15.62C148.43 16.4734 148.223 17.2267 147.81 17.88C147.396 18.5334 146.823 19.04 146.09 19.4C145.37 19.7467 144.556 19.92 143.65 19.92C141.796 19.92 140.376 19.3134 139.39 18.1C138.403 16.8734 137.91 15.1467 137.91 12.92C137.91 11.36 138.176 10.04 138.71 8.96005C139.243 7.88005 139.99 7.06671 140.95 6.52005C141.91 5.96005 143.03 5.68005 144.31 5.68005C145.696 5.68005 146.803 5.93338 147.63 6.44005L147.05 7.60005C146.383 7.16005 145.476 6.94005 144.33 6.94005C142.783 6.94005 141.57 7.43338 140.69 8.42005C139.81 9.39338 139.37 10.8134 139.37 12.68C139.37 13.0134 139.39 13.3934 139.43 13.82C139.776 13.06 140.33 12.4734 141.09 12.06C141.85 11.6334 142.723 11.42 143.71 11.42ZM143.59 18.7C144.603 18.7 145.423 18.4267 146.05 17.88C146.69 17.32 147.01 16.58 147.01 15.66C147.01 14.74 146.69 14.0067 146.05 13.46C145.423 12.9134 144.57 12.64 143.49 12.64C142.783 12.64 142.156 12.7734 141.61 13.04C141.076 13.3067 140.656 13.6734 140.35 14.14C140.043 14.6067 139.89 15.1267 139.89 15.7C139.89 16.2334 140.03 16.7267 140.31 17.18C140.603 17.6334 141.03 18 141.59 18.28C142.15 18.56 142.816 18.7 143.59 18.7ZM156.177 11.54C158.204 11.54 159.677 11.9067 160.597 12.64C161.53 13.36 161.997 14.3734 161.997 15.68C161.997 16.4934 161.804 17.22 161.417 17.86C161.044 18.5 160.477 19.0067 159.717 19.38C158.957 19.74 158.024 19.92 156.917 19.92C155.917 19.92 154.964 19.76 154.057 19.44C153.164 19.1067 152.444 18.6667 151.897 18.12L152.597 16.98C153.064 17.46 153.677 17.8534 154.437 18.16C155.197 18.4534 156.017 18.6 156.897 18.6C158.057 18.6 158.95 18.34 159.577 17.82C160.217 17.3 160.537 16.6067 160.537 15.74C160.537 14.78 160.177 14.0534 159.457 13.56C158.75 13.0667 157.55 12.82 155.857 12.82H152.877L153.597 5.80005H161.257V7.08005H154.857L154.377 11.54H156.177ZM166.385 13.76H171.625V15H166.385V13.76ZM185.947 5.80005V6.82005L180.087 19.8H178.527L184.287 7.08005H177.087V9.70005H175.667V5.80005H185.947ZM195.433 19.92C194.353 19.92 193.387 19.6334 192.533 19.06C191.693 18.4867 191.033 17.6667 190.553 16.6C190.087 15.52 189.853 14.2534 189.853 12.8C189.853 11.3467 190.087 10.0867 190.553 9.02005C191.033 7.94005 191.693 7.11338 192.533 6.54005C193.387 5.96671 194.353 5.68005 195.433 5.68005C196.513 5.68005 197.473 5.96671 198.313 6.54005C199.167 7.11338 199.833 7.94005 200.313 9.02005C200.793 10.0867 201.033 11.3467 201.033 12.8C201.033 14.2534 200.793 15.52 200.313 16.6C199.833 17.6667 199.167 18.4867 198.313 19.06C197.473 19.6334 196.513 19.92 195.433 19.92ZM195.433 18.6C196.247 18.6 196.96 18.3734 197.573 17.92C198.2 17.4667 198.687 16.8067 199.033 15.94C199.38 15.0734 199.553 14.0267 199.553 12.8C199.553 11.5734 199.38 10.5267 199.033 9.66005C198.687 8.79338 198.2 8.13338 197.573 7.68005C196.96 7.22671 196.247 7.00005 195.433 7.00005C194.62 7.00005 193.9 7.22671 193.273 7.68005C192.66 8.13338 192.18 8.79338 191.833 9.66005C191.487 10.5267 191.313 11.5734 191.313 12.8C191.313 14.0267 191.487 15.0734 191.833 15.94C192.18 16.8067 192.66 17.4667 193.273 17.92C193.9 18.3734 194.62 18.6 195.433 18.6ZM205.812 13.76H211.052V15H205.812V13.76ZM227.745 16.12H224.945V19.8H223.505V16.12H215.605V15.08L223.025 5.80005H224.625L217.465 14.84H223.545V11.6H224.945V14.84H227.745V16.12ZM243.367 16.12H240.567V19.8H239.127V16.12H231.227V15.08L238.647 5.80005H240.247L233.087 14.84H239.167V11.6H240.567V14.84H243.367V16.12Z" fill="white"/>
<g clip-path="url(#clip0_98_900)">
<path d="M27.4758 23.9985L27.3384 23.5845C27.013 22.6175 25.9466 21.6089 24.9668 21.3431L21.3408 20.3526C20.3575 20.0851 18.9548 20.4448 18.2353 21.1642L16.923 22.4765C12.1537 21.1878 8.41381 17.4478 7.12681 12.6794L8.4392 11.367C9.15865 10.6476 9.51832 9.24673 9.2508 8.2634L8.26203 4.63556C7.99451 3.65403 6.98405 2.58758 6.01883 2.2658L5.60491 2.12663C4.63784 1.80486 3.25864 2.13028 2.53925 2.84967L0.576181 4.81453C0.22548 5.16338 0.00133992 6.16116 0.00133992 6.16481C-0.0673194 12.3974 2.37654 18.4021 6.78519 22.8108C11.183 27.2087 17.1653 29.6489 23.3797 29.5965C23.4123 29.5965 24.439 29.376 24.7897 29.0271L26.7527 27.064C27.4721 26.3447 27.7975 24.9655 27.4758 23.9985Z" fill="white"/>
</g>
<defs>
<clipPath id="clip0_98_900">
<rect width="27.6" height="27.6" fill="white" transform="translate(-4.57764e-05 2)"/>
</clipPath>
</defs>
</svg>
