<svg width="30" height="30" viewBox="0 0 30 30" fill="none" xmlns="http://www.w3.org/2000/svg">
<g clip-path="url(#clip0_184_318)">
<path d="M29.865 23.9114L29.7157 23.4615C29.362 22.4103 28.2028 21.314 27.1379 21.0252L23.1966 19.9485C22.1277 19.6577 20.6031 20.0487 19.8211 20.8307L18.3946 22.2571C13.2106 20.8563 9.14549 16.7911 7.74658 11.6081L9.17309 10.1816C9.9551 9.39956 10.346 7.87691 10.0553 6.80808L8.98051 2.86477C8.68973 1.79789 7.59141 0.638709 6.54225 0.288949L6.09234 0.137678C5.04117 -0.212082 3.54204 0.141639 2.7601 0.923584L0.626328 3.0593C0.245132 3.43849 0.00150055 4.52304 0.00150055 4.527C-0.0731291 11.3015 2.58323 17.8284 7.37525 22.6205C12.1555 27.4008 18.658 30.0532 25.4128 29.9963C25.4481 29.9963 26.5641 29.7565 26.9453 29.3773L29.0791 27.2435C29.861 26.4616 30.2147 24.9626 29.865 23.9114Z" fill="black"/>
</g>
<defs>
<clipPath id="clip0_184_318">
<rect width="30" height="30" fill="white"/>
</clipPath>
</defs>
</svg>
