<svg width="82" height="81" viewBox="0 0 82 81" fill="none" xmlns="http://www.w3.org/2000/svg">
<rect x="0.481476" y="0.819092" width="81.1732" height="79.4005" rx="39.7003" fill="black"/>
<path d="M52.9774 51.8982C58.0726 51.8982 62.2124 48.193 62.2124 43.5378C62.2124 41.7327 63.0616 39.9276 64.4415 38.6926C68.0506 35.4624 68.0506 30.1421 64.4415 26.912C62.9554 25.5819 62.2124 23.8718 62.2124 22.0667C62.2124 17.5065 58.0726 13.7063 52.8713 13.7063C50.8545 13.7063 48.8376 12.9463 47.4577 11.7112C43.8486 8.48103 37.9043 8.48103 34.2952 11.7112C32.8091 13.0413 30.8984 13.7063 28.8816 13.7063C23.7865 13.7063 19.5405 17.4115 19.5405 22.0667C19.5405 23.8718 18.6913 25.6769 17.3114 26.912C15.5069 28.527 14.5515 30.5221 14.5515 32.8023C14.5515 34.9874 15.5069 37.0775 17.3114 38.6926C18.7975 40.0226 19.5405 41.7327 19.5405 43.5378C19.5405 48.098 23.6803 51.8982 28.8816 51.8982C30.8984 51.8982 32.9153 52.6583 34.2952 53.8933C36.0997 55.5084 38.435 56.3634 40.8764 56.3634C43.2117 56.3634 45.6531 55.5084 47.4577 53.8933C49.0499 52.5633 50.9606 51.8982 52.9774 51.8982ZM35.569 52.8483C33.7645 51.2332 31.4292 50.3781 28.9878 50.3781C24.7418 50.3781 21.2389 47.243 21.2389 43.4428C21.2389 41.2577 20.2836 39.1676 18.479 37.5525C16.9929 36.2224 16.2499 34.5123 16.2499 32.7073C16.2499 30.9022 17.0991 29.0971 18.479 27.862C20.2836 26.2469 21.2389 24.1568 21.2389 21.9717C21.2389 18.1715 24.7418 15.0364 28.9878 15.0364C31.4292 15.0364 33.7645 14.1813 35.569 12.5662C37.0551 11.4262 38.9658 10.7611 40.9826 10.7611C42.9994 10.7611 44.9101 11.4262 46.3962 12.7562C48.2007 14.2763 50.536 15.1314 52.9774 15.1314C57.2234 15.1314 60.6202 18.2665 60.6202 22.0667C60.6202 24.2518 61.5755 26.3419 63.38 27.957C66.3522 30.6171 66.3522 34.9874 63.38 37.7425C61.5755 39.3576 60.6202 41.4477 60.6202 43.6328C60.6202 47.433 57.1172 50.5682 52.8713 50.5682C50.4299 50.5682 48.0946 51.4232 46.29 53.0383C43.424 55.6034 38.5412 55.6034 35.569 52.8483Z" fill="white"/>
<path d="M59.771 32.8021C59.771 32.422 59.4525 32.042 58.9218 32.042C58.4972 32.042 58.0726 32.327 58.0726 32.8021C58.0726 41.2575 50.3237 48.1928 40.7703 48.2878C31.3231 48.2878 23.5742 41.3525 23.468 32.8021C23.468 30.4269 23.9988 28.2418 25.1664 26.1517C28.2447 20.8315 34.4014 17.4113 40.9826 17.4113C48.2007 17.4113 54.782 21.4965 57.2234 27.6718C57.3295 28.0518 57.8603 28.2418 58.2849 28.1468C58.4972 28.0518 58.6033 27.9568 58.7095 27.7668C58.8156 27.5768 58.8156 27.3868 58.7095 27.1968C56.0558 20.5464 48.9438 15.9862 40.9826 15.9862C37.3735 15.9862 33.8706 16.9363 30.7923 18.6463C27.8201 20.3564 25.4849 22.7315 23.9988 25.5817C22.8311 27.8618 22.1942 30.3319 22.1942 32.8971C22.1942 42.2075 30.6862 49.8079 41.0888 49.8079C51.4914 49.8079 59.771 42.1125 59.771 32.8021Z" fill="white"/>
<path d="M58.0725 29.667C57.9664 29.857 57.9664 30.047 57.9664 30.237C58.0725 30.617 58.391 30.807 58.7094 30.807H58.8156C59.0279 30.807 59.2402 30.712 59.3463 30.522C59.4525 30.332 59.5586 30.142 59.4525 29.952C59.3463 29.5719 58.9217 29.2869 58.4971 29.3819C58.391 29.4769 58.2848 29.5719 58.0725 29.667Z" fill="white"/>
<path d="M53.8266 29.0969C53.7205 28.8119 53.5082 28.6219 53.1897 28.6219L45.2286 27.5768L41.7257 21.1165C41.4072 20.6415 40.558 20.6415 40.3457 21.1165L36.7367 27.5768L28.8816 28.6219C28.5632 28.6219 28.3509 28.8119 28.2447 29.0969C28.1386 29.3819 28.2447 29.667 28.457 29.857L34.1891 34.8922L32.703 41.8276C32.703 42.1126 32.8091 42.3976 33.0214 42.4926C33.2337 42.6826 33.5522 42.6826 33.8706 42.5876L40.9826 39.2624L48.0946 42.5876C48.2007 42.6826 48.3069 42.6826 48.413 42.6826C48.6253 42.6826 48.7315 42.6826 48.8376 42.5876C49.0499 42.3976 49.1561 42.1126 49.1561 41.9226L47.7761 34.8922L53.5082 29.857C53.8266 29.667 53.8266 29.3819 53.8266 29.0969ZM46.3962 34.0372C46.1839 34.2272 46.0778 34.4172 46.1839 34.7022L47.3515 40.6875L41.3011 37.8374C41.1949 37.7424 41.0888 37.7424 40.9826 37.7424C40.8765 37.7424 40.7703 37.7424 40.6642 37.8374L34.6137 40.6875L35.7813 34.7022C35.7813 34.5122 35.7813 34.2272 35.569 34.0372L30.6862 29.762L37.3735 28.9069C37.5858 28.9069 37.9043 28.7169 38.0104 28.5269L40.9826 23.1116L43.9548 28.5269C44.0609 28.7169 44.2732 28.9069 44.5917 28.9069L51.2791 29.762L46.3962 34.0372Z" fill="white"/>
<path d="M35.6752 57.5983C35.2506 57.4083 34.826 57.5983 34.6137 57.9784L29.837 67.0988L26.8648 59.6884C26.7587 59.4984 26.6525 59.4034 26.4402 59.3084C26.2279 59.2134 26.0156 59.2134 25.8033 59.3084L17.5237 61.9686L22.0881 53.1331C22.3004 52.7531 22.0881 52.3731 21.6635 52.1831C21.2389 51.9931 20.8143 52.1831 20.602 52.5631L15.1884 63.0136C15.0823 63.2986 15.0823 63.5836 15.2946 63.7736C15.5069 63.9637 15.8253 64.0587 16.1438 63.9637L25.4849 60.9235L28.8817 69.2839C28.9878 69.5689 29.3062 69.7589 29.6247 69.7589C29.9431 69.7589 30.2616 69.5689 30.3677 69.3789L35.8875 58.7384C36.3121 58.1684 36.0998 57.7883 35.6752 57.5983Z" fill="white"/>
<path d="M64.9723 63.6787C65.1846 63.4886 65.2908 63.2036 65.0785 62.9186L59.9833 53.2281C59.771 52.8481 59.3464 52.7531 58.9218 52.8481C58.4972 53.0381 58.3911 53.4181 58.4972 53.7982L62.7432 61.9686L54.4636 59.3084C54.2513 59.2134 54.039 59.2134 53.8267 59.3084C53.6144 59.4034 53.5082 59.4984 53.4021 59.6885L50.5361 67.0038L46.0778 58.3584C45.8655 57.9784 45.4409 57.8834 45.0163 57.9784C44.5917 58.1684 44.4856 58.5484 44.5917 58.9284L49.8992 69.0939C50.0053 69.3789 50.3238 69.4739 50.6422 69.4739C50.9607 69.4739 51.2791 69.2839 51.3853 68.9989L54.782 60.6385L64.1231 63.6787C64.4416 63.9637 64.76 63.8687 64.9723 63.6787Z" fill="white"/>
</svg>
