<svg width="81" height="80" viewBox="0 0 81 80" fill="none" xmlns="http://www.w3.org/2000/svg">
<rect x="0.981873" y="0.69104" width="79.0909" height="79.0909" rx="39.5455" fill="black"/>
<g clip-path="url(#clip0_349_4)">
<path d="M52.572 46.2517C52.229 45.9277 51.7902 45.7235 51.3214 45.6699C50.8526 45.6162 50.379 45.716 49.9717 45.9541L49.2632 43.0775V43.0138V42.9571C49.2285 42.8808 49.1805 42.8112 49.1215 42.7516L48.1225 41.7526C47.925 41.5544 47.6903 41.3972 47.432 41.2899C47.1736 41.1827 46.8966 41.1274 46.6168 41.1274C46.3371 41.1274 46.0601 41.1827 45.8017 41.2899C45.5434 41.3972 45.3087 41.5544 45.1112 41.7526L44.6082 41.2425L53.989 31.7695C54.0715 31.6878 54.1728 31.6277 54.284 31.5943C54.3952 31.561 54.5129 31.5554 54.6267 31.5782C55.7063 31.8108 56.8257 31.7841 57.893 31.5003C59.1035 31.174 60.2071 30.5356 61.0936 29.6491C61.9801 28.7626 62.6184 27.659 62.9448 26.4485C63.17 25.6061 63.2349 24.7288 63.1361 23.8624C63.1058 23.5959 63.0006 23.3434 62.8325 23.1343C62.6645 22.9253 62.4405 22.7682 62.1867 22.6814C61.9329 22.5945 61.6597 22.5815 61.3988 22.6439C61.1379 22.7062 60.9001 22.8413 60.7129 23.0334L58.7432 25.0456C58.6773 25.112 58.599 25.1648 58.5126 25.2007C58.4263 25.2367 58.3337 25.2552 58.2402 25.2552C58.1466 25.2552 58.054 25.2367 57.9677 25.2007C57.8813 25.1648 57.803 25.112 57.7371 25.0456L55.7532 23.0405C55.6859 22.9726 55.6329 22.8918 55.5976 22.8029C55.5623 22.714 55.5453 22.6189 55.5478 22.5233C55.5472 22.4284 55.5657 22.3343 55.6023 22.2467C55.6388 22.159 55.6925 22.0796 55.7603 22.0132L57.7371 20.001C57.926 19.8117 58.0575 19.573 58.1164 19.3122C58.1753 19.0514 58.1593 18.7793 58.0701 18.5272C57.9798 18.2804 57.8227 18.0635 57.6162 17.9009C57.4098 17.7382 57.1622 17.6362 56.9011 17.6061C55.2096 17.4181 53.5071 17.8451 52.1046 18.8091C50.7021 19.7732 49.6935 21.2098 49.2632 22.8563C48.9792 23.9212 48.9525 25.0383 49.1852 26.1155C49.2163 26.2296 49.2183 26.3497 49.1911 26.4648C49.1639 26.5799 49.1083 26.6863 49.0294 26.7744L39.5281 36.2261L27.9366 24.6489L27.5682 22.7784C27.4869 22.3651 27.2847 21.9854 26.9872 21.6872L23.2816 17.9817C23.15 17.8499 22.9938 17.7454 22.8217 17.6741C22.6497 17.6028 22.4653 17.5661 22.2791 17.5661C22.0929 17.5661 21.9085 17.6028 21.7364 17.6741C21.5644 17.7454 21.4081 17.8499 21.2765 17.9817L18.2724 20.9858C18.1406 21.1174 18.0361 21.2737 17.9648 21.4457C17.8935 21.6177 17.8568 21.8021 17.8568 21.9884C17.8568 22.1746 17.8935 22.359 17.9648 22.531C18.0361 22.703 18.1406 22.8593 18.2724 22.9909L21.9709 26.6965C22.269 26.994 22.6488 27.1962 23.062 27.2775L24.9325 27.6459L36.5169 39.2374L27.0652 48.7386C26.9827 48.8203 26.8814 48.8805 26.7702 48.9139C26.659 48.9472 26.5413 48.9527 26.4275 48.9299C25.3479 48.6974 24.2285 48.7241 23.1612 49.0079C21.951 49.3279 20.8458 49.9594 19.9557 50.8395C19.0657 51.7197 18.4217 52.8177 18.0882 54.0242C17.8629 54.8667 17.798 55.7439 17.8969 56.6103C17.9287 56.8739 18.0339 57.1232 18.2005 57.3299C18.3671 57.5366 18.5884 57.6924 18.8392 57.7794C19.0929 57.8691 19.3668 57.8848 19.629 57.8246C19.8913 57.7644 20.1309 57.6307 20.32 57.4393L22.2897 55.4271C22.3556 55.3607 22.4339 55.308 22.5203 55.272C22.6066 55.236 22.6992 55.2175 22.7928 55.2175C22.8863 55.2175 22.9789 55.236 23.0652 55.272C23.1516 55.308 23.23 55.3607 23.2958 55.4271L25.3009 57.4322C25.4318 57.5642 25.5056 57.7423 25.5064 57.9282C25.507 58.0231 25.4884 58.1172 25.4519 58.2048C25.4154 58.2925 25.3617 58.3719 25.2939 58.4383L23.3171 60.4505C23.1269 60.6384 22.9937 60.8763 22.933 61.1367C22.8722 61.3971 22.8864 61.6693 22.9738 61.922C23.0613 62.1746 23.2184 62.3974 23.4271 62.5646C23.6358 62.7317 23.8875 62.8364 24.1531 62.8666C24.4143 62.8949 24.6769 62.9091 24.9396 62.9091C26.506 62.9084 28.0281 62.3886 29.2677 61.4309C30.5073 60.4733 31.3947 59.1319 31.791 57.6164C32.075 56.5516 32.1017 55.4344 31.8689 54.3572C31.8379 54.2431 31.8358 54.123 31.8631 54.0079C31.8903 53.8928 31.9459 53.7864 32.0248 53.6983L41.5261 44.2466L42.0362 44.7497C41.8381 44.9471 41.6809 45.1818 41.5736 45.4401C41.4663 45.6985 41.4111 45.9755 41.4111 46.2553C41.4111 46.535 41.4663 46.812 41.5736 47.0704C41.6809 47.3288 41.8381 47.5634 42.0362 47.7609L43.0353 48.7386C43.0948 48.7977 43.1644 48.8456 43.2407 48.8803H43.2974H43.3612L46.2307 49.5889C45.9612 50.0038 45.8449 50.4997 45.9018 50.9912C45.9587 51.4827 46.1853 51.9389 46.5424 52.2813L56.568 62.2856C56.9666 62.6836 57.5068 62.9072 58.0701 62.9072C58.6334 62.9072 59.1736 62.6836 59.5722 62.2856L62.5763 59.2815C62.9744 58.8829 63.198 58.3427 63.198 57.7794C63.198 57.2161 62.9744 56.6759 62.5763 56.2773L52.572 46.2517ZM50 27.7522C50.2485 27.5026 50.4309 27.1951 50.5311 26.8575C50.6313 26.5199 50.646 26.1626 50.5739 25.8179C50.3907 24.9633 50.4101 24.0776 50.6306 23.2318C50.8899 22.2564 51.4027 21.3669 52.117 20.6539C52.8313 19.9408 53.7217 19.4295 54.6975 19.172C55.3687 18.9892 56.0689 18.9386 56.7593 19.0232L54.7542 21.0354C54.5561 21.2329 54.3988 21.4675 54.2916 21.7259C54.1843 21.9843 54.1291 22.2613 54.1291 22.541C54.1291 22.8208 54.1843 23.0978 54.2916 23.3561C54.3988 23.6145 54.5561 23.8491 54.7542 24.0466L56.7593 26.0659C56.9568 26.2641 57.1915 26.4213 57.4498 26.5286C57.7082 26.6359 57.9852 26.6911 58.265 26.6911C58.5447 26.6911 58.8217 26.6359 59.0801 26.5286C59.3384 26.4213 59.5731 26.2641 59.7706 26.0659L61.7828 24.0183C61.8472 24.7068 61.7823 25.4013 61.5915 26.0659C61.3307 27.0337 60.8205 27.9161 60.1118 28.6248C59.4031 29.3335 58.5207 29.8438 57.5529 30.1045C56.7009 30.3319 55.8066 30.3514 54.9455 30.1612C54.5997 30.0879 54.2411 30.102 53.9021 30.2022C53.5632 30.3024 53.2545 30.4855 53.0042 30.7351L43.5312 40.2364L40.5271 37.2322L50 27.7522ZM31.0541 52.7205C30.8057 52.9702 30.6232 53.2776 30.5231 53.6152C30.4229 53.9529 30.4082 54.3101 30.4802 54.6548C30.6635 55.5094 30.6441 56.3951 30.4236 57.2409C30.1635 58.209 29.6535 59.0918 28.9446 59.8006C28.2358 60.5094 27.3531 61.0194 26.385 61.2795C25.7139 61.4623 25.0136 61.5129 24.3232 61.4283L26.3 59.409C26.698 59.0105 26.9216 58.4702 26.9216 57.9069C26.9216 57.3436 26.698 56.8034 26.3 56.4049L24.2948 54.4068C24.0974 54.2087 23.8627 54.0514 23.6043 53.9442C23.346 53.8369 23.069 53.7816 22.7892 53.7816C22.5095 53.7816 22.2325 53.8369 21.9741 53.9442C21.7157 54.0514 21.4811 54.2087 21.2836 54.4068L19.3068 56.4474C19.2318 55.7634 19.2847 55.0715 19.4627 54.4068C19.7209 53.4313 20.2324 52.5413 20.9454 51.8271C21.6583 51.1129 22.5474 50.5998 23.5225 50.3399C24.3751 50.116 25.2684 50.0965 26.1299 50.2832C26.4757 50.3565 26.8343 50.3424 27.1733 50.2422C27.5123 50.142 27.8209 49.9589 28.0713 49.7093L37.523 40.2364L40.5271 43.2405L31.0541 52.7205ZM46.5424 42.5391C46.6357 42.5385 46.7281 42.5564 46.8145 42.5917C46.9008 42.6269 46.9793 42.6789 47.0455 42.7445L47.5486 43.2476L43.5383 47.2578L43.0353 46.7548C42.9033 46.622 42.8292 46.4424 42.8292 46.2553C42.8292 46.0681 42.9033 45.8885 43.0353 45.7558L46.0465 42.7445C46.1785 42.6136 46.3566 42.5399 46.5424 42.5391ZM22.2755 18.9807L23.5225 20.2348L20.5255 23.2318L19.2714 21.9848L22.2755 18.9807ZM22.9841 25.6904L21.0215 23.742L24.0327 20.7307L25.9811 22.6863C26.0816 22.7844 26.1507 22.9102 26.1795 23.0476L26.5196 24.7622L25.053 26.2289L23.3383 25.8888C23.2009 25.8599 23.0751 25.7909 22.977 25.6904H22.9841ZM26.2929 26.9941L27.2919 25.9951L44.0697 42.7445L43.0353 43.779L26.2929 26.9941ZM48.1721 44.6363L48.7743 47.0382L47.3573 48.4552L44.9554 47.853L48.1721 44.6363ZM61.5773 58.2754L58.5661 61.2866C58.4333 61.4185 58.2538 61.4926 58.0666 61.4926C57.8794 61.4926 57.6998 61.4185 57.5671 61.2866L47.5486 51.261C47.4177 51.129 47.3439 50.9509 47.3431 50.765C47.3425 50.6718 47.3604 50.5793 47.3957 50.493C47.4309 50.4067 47.4829 50.3282 47.5486 50.262L50.5527 47.2578C50.6189 47.1922 50.6974 47.1402 50.7837 47.1049C50.8701 47.0697 50.9625 47.0518 51.0557 47.0524C51.2416 47.0531 51.4197 47.1269 51.5517 47.2578L61.5773 57.2763C61.643 57.3425 61.6949 57.4211 61.7302 57.5074C61.7654 57.5937 61.7833 57.6861 61.7828 57.7794C61.782 57.9653 61.7082 58.1434 61.5773 58.2754Z" fill="white"/>
<path d="M49.2988 50.51C49.2326 50.445 49.1436 50.4087 49.0509 50.4087C48.9581 50.4087 48.8691 50.445 48.8029 50.51C48.7697 50.5429 48.7433 50.5821 48.7253 50.6252C48.7073 50.6684 48.6981 50.7147 48.6981 50.7615C48.6981 50.8083 48.7073 50.8546 48.7253 50.8977C48.7433 50.9409 48.7697 50.9801 48.8029 51.013L57.8153 60.0325C57.8829 60.1003 57.9746 60.1386 58.0704 60.1388C58.1167 60.1385 58.1625 60.129 58.2051 60.1107C58.2477 60.0925 58.2862 60.0659 58.3183 60.0325C58.3515 59.9996 58.3779 59.9604 58.3959 59.9172C58.4139 59.8741 58.4231 59.8277 58.4231 59.781C58.4231 59.7342 58.4139 59.6879 58.3959 59.6447C58.3779 59.6016 58.3515 59.5624 58.3183 59.5295L49.2988 50.51Z" fill="white"/>
<path d="M50.305 49.5109C50.2382 49.4442 50.1478 49.4067 50.0534 49.4067C49.9591 49.4067 49.8686 49.4442 49.8019 49.5109C49.7352 49.5776 49.6977 49.6681 49.6977 49.7624C49.6977 49.8568 49.7352 49.9473 49.8019 50.014L58.8214 59.0264C58.8536 59.0598 58.8921 59.0863 58.9346 59.1046C58.9772 59.1229 59.023 59.1324 59.0694 59.1327C59.1158 59.1332 59.1619 59.1241 59.2046 59.1058C59.2473 59.0875 59.2857 59.0604 59.3174 59.0264C59.3513 58.9946 59.3783 58.9562 59.3967 58.9135C59.4152 58.8709 59.4247 58.8249 59.4247 58.7784C59.4247 58.7319 59.4152 58.6859 59.3967 58.6433C59.3783 58.6006 59.3513 58.5622 59.3174 58.5304L50.305 49.5109Z" fill="white"/>
<path d="M51.304 48.512C51.271 48.4788 51.2318 48.4525 51.1887 48.4345C51.1455 48.4165 51.0992 48.4072 51.0524 48.4072C51.0057 48.4072 50.9594 48.4165 50.9162 48.4345C50.873 48.4525 50.8338 48.4788 50.8009 48.512C50.736 48.5782 50.6996 48.6673 50.6996 48.76C50.6996 48.8527 50.736 48.9418 50.8009 49.008L59.8204 58.0275C59.888 58.0953 59.9797 58.1335 60.0755 58.1338C60.1689 58.1324 60.2581 58.0942 60.3235 58.0275C60.3888 57.9601 60.4254 57.8699 60.4254 57.776C60.4254 57.6821 60.3888 57.5918 60.3235 57.5244L51.304 48.512Z" fill="white"/>
</g>
<defs>
<clipPath id="clip0_349_4">
<rect width="45.3455" height="45.3455" fill="white" transform="translate(17.8546 17.5637)"/>
</clipPath>
</defs>
</svg>
