<svg width="38" height="38" viewBox="0 0 38 38" fill="none" xmlns="http://www.w3.org/2000/svg">
<g clip-path="url(#clip0_629_42)">
<path d="M33.0099 21.005C33.0099 20.4321 33.2008 19.8593 33.2008 19.0954C33.2008 18.3316 33.2008 17.7588 33.0099 17.1859L37.0199 13.9397C37.4018 13.5578 37.4018 13.1759 37.2109 12.7939L33.3918 6.11054C33.2008 5.91959 32.819 5.72863 32.2461 5.91959L27.4722 7.82913C26.5174 7.06531 25.3717 6.49245 24.226 5.91959L23.4622 0.954772C23.6531 0.381909 23.0802 0 22.6983 0H15.0602C14.6782 0 14.1054 0.381909 14.1054 0.763818L13.3416 5.91959C12.1958 6.3015 11.2411 7.06531 10.0953 7.82913L5.51244 5.91959C4.93958 5.72863 4.55767 5.91959 4.17569 6.3015L0.356598 12.9849C0.165644 13.1759 0.356598 13.7487 0.738507 14.1306L4.74855 17.1859C4.74855 17.7588 4.55759 18.3316 4.55759 19.0954C4.55759 19.8593 4.55759 20.4321 4.74855 21.005L0.738507 24.2512C0.356598 24.6332 0.356598 25.015 0.547553 25.397L4.36664 32.0804C4.55759 32.2714 4.93943 32.4623 5.51237 32.2714L10.2862 30.3618C11.241 31.1256 12.3867 31.6985 13.5325 32.2714L14.2963 37.2362C14.2963 37.6181 14.6782 38 15.251 38H22.8892C23.2712 38 23.844 37.618 23.844 37.2362L24.6078 32.2714C25.7535 31.6985 26.8993 31.1256 27.854 30.3618L32.6279 32.2714C33.0099 32.4623 33.5827 32.2714 33.7737 31.8894L37.5928 25.206C37.7837 24.8241 37.7837 24.2512 37.4018 24.0603L33.0099 21.005ZM18.8793 25.7788C15.2511 25.7788 12.1958 22.7236 12.1958 19.0954C12.1958 15.4673 15.2511 12.412 18.8793 12.412C22.5074 12.412 25.5627 15.4673 25.5627 19.0954C25.5627 22.7236 22.5074 25.7788 18.8793 25.7788Z" fill="white"/>
</g>
<defs>
<clipPath id="clip0_629_42">
<rect width="38" height="37.9999" fill="white"/>
</clipPath>
</defs>
</svg>
