<svg width="56" height="56" viewBox="0 0 56 56" fill="none" xmlns="http://www.w3.org/2000/svg">
<rect width="55.2" height="55.2" rx="10" fill="black"/>
<g clip-path="url(#clip0_98_806)">
<path d="M38.3509 45.6H18.4345C16.5596 45.6 15.0348 44.0751 15.0348 42.2015L12.2137 28.9568C11.1478 28.4284 10.4478 27.3503 10.4478 26.1466C10.4478 24.3875 11.8786 22.9579 13.6365 22.9579H42.7635C44.5214 22.9579 45.9522 24.3875 45.9522 26.1466C45.9522 27.1759 45.4554 28.1184 44.6247 28.7117L41.7273 42.4168C41.7506 44.0751 40.2257 45.6 38.3509 45.6ZM13.6365 25.0491C13.032 25.0491 12.5392 25.5418 12.5392 26.1463C12.5392 26.623 12.8837 27.045 13.378 27.1704C13.7634 27.2684 14.0588 27.5787 14.1404 27.9682L17.103 41.9864C17.1263 42.9229 17.713 43.5085 18.4345 43.5085H38.3509C39.0723 43.5085 39.6594 42.9229 39.6594 42.2015L42.6725 27.8375C42.738 27.5216 42.9462 27.2548 43.2336 27.1133C43.6202 26.9255 43.8613 26.5522 43.8613 26.1466C43.8613 25.5422 43.3686 25.0494 42.7638 25.0494H13.6365V25.0491Z" fill="white"/>
<path d="M21.1196 39.4686C21.1196 39.8732 20.7885 40.2043 20.3839 40.2043H20.1812C19.7766 40.2043 19.4455 39.8732 19.4455 39.4686V30.8565C19.4455 30.4519 19.7766 30.1208 20.1812 30.1208H20.3839C20.7885 30.1208 21.1196 30.4519 21.1196 30.8565V39.4686Z" fill="white"/>
<path d="M26.5066 39.4686C26.5066 39.8732 26.1755 40.2043 25.7709 40.2043H25.5683C25.1636 40.2043 24.8322 39.8732 24.8322 39.4686V30.8565C24.8322 30.4519 25.1633 30.1208 25.5683 30.1208H25.7709C26.1755 30.1208 26.5066 30.4519 26.5066 30.8565V39.4686Z" fill="white"/>
<path d="M31.8939 39.4686C31.8939 39.8732 31.5628 40.2043 31.1582 40.2043H30.9552C30.5506 40.2043 30.2195 39.8732 30.2195 39.4686V30.8565C30.2195 30.4519 30.5506 30.1208 30.9552 30.1208H31.1582C31.5628 30.1208 31.8939 30.4519 31.8939 30.8565V39.4686Z" fill="white"/>
<path d="M37.2812 39.4686C37.2812 39.8732 36.9501 40.2043 36.5454 40.2043H36.3425C35.9379 40.2043 35.6064 39.8732 35.6064 39.4686V30.8565C35.6064 30.4519 35.9379 30.1208 36.3425 30.1208H36.5451C36.9498 30.1208 37.2809 30.4519 37.2809 30.8565V39.4686H37.2812Z" fill="white"/>
<path d="M18.2971 19.2199C18.9953 14.3576 23.1658 10.6172 28.2208 10.6172C33.2761 10.6172 37.4469 14.358 38.1451 19.2199C38.2469 20.8801 40.3856 20.6144 40.3856 19.2199C39.6737 13.1291 34.5033 8.39999 28.2211 8.39999C21.9392 8.39999 16.7685 13.1291 16.0569 19.2199C16.0566 20.9468 18.3244 21.0132 18.2971 19.2199Z" fill="white"/>
</g>
<defs>
<clipPath id="clip0_98_806">
<rect width="37.2" height="37.2" fill="white" transform="translate(9.59998 8.39999)"/>
</clipPath>
</defs>
</svg>
