<svg width="56" height="56" viewBox="0 0 56 56" fill="none" xmlns="http://www.w3.org/2000/svg">
<rect x="0.199951" width="55.2" height="55.2" rx="10" fill="black"/>
<path d="M28.4 27C30.2171 27 31.9934 26.4612 33.5043 25.4516C35.0151 24.4421 36.1927 23.0072 36.8881 21.3284C37.5835 19.6496 37.7654 17.8023 37.4109 16.0201C37.0564 14.2379 36.1814 12.6009 34.8965 11.316C33.6116 10.0311 31.9746 9.15604 30.1924 8.80154C28.4102 8.44704 26.5629 8.62898 24.8841 9.32436C23.2053 10.0197 21.7704 11.1973 20.7608 12.7082C19.7513 14.2191 19.2125 15.9954 19.2125 17.8125C19.2125 20.2492 20.1804 22.5861 21.9034 24.309C23.6264 26.032 25.9633 27 28.4 27ZM28.4 11.25C29.6979 11.25 30.9667 11.6349 32.0459 12.356C33.1251 13.0771 33.9662 14.102 34.4629 15.3011C34.9596 16.5003 35.0896 17.8198 34.8364 19.0928C34.5832 20.3658 33.9581 21.5351 33.0403 22.4529C32.1226 23.3707 30.9532 23.9957 29.6802 24.2489C28.4072 24.5021 27.0877 24.3722 25.8886 23.8755C24.6895 23.3788 23.6645 22.5376 22.9434 21.4584C22.2223 20.3792 21.8375 19.1104 21.8375 17.8125C21.8375 16.072 22.5289 14.4028 23.7596 13.1721C24.9903 11.9414 26.6595 11.25 28.4 11.25Z" fill="white"/>
<path d="M29.7125 29.625H27.0875C23.2584 29.625 19.5862 31.1461 16.8786 33.8536C14.1711 36.5612 12.65 40.2334 12.65 44.0625C12.65 44.4106 12.7882 44.7444 13.0344 44.9906C13.2805 45.2367 13.6144 45.375 13.9625 45.375H42.8375C43.1856 45.375 43.5194 45.2367 43.7655 44.9906C44.0117 44.7444 44.15 44.4106 44.15 44.0625C44.15 40.2334 42.6289 36.5612 39.9213 33.8536C37.2138 31.1461 33.5415 29.625 29.7125 29.625ZM15.3537 42.75C15.6765 39.8633 17.0514 37.1968 19.216 35.2599C21.3805 33.3229 24.1828 32.2514 27.0875 32.25H29.7125C32.6171 32.2514 35.4194 33.3229 37.5839 35.2599C39.7485 37.1968 41.1235 39.8633 41.4462 42.75H15.3537Z" fill="white"/>
</svg>
